<?xml version="1.0" standalone="no"?>
<!DOCTYPE svg PUBLIC "-//W3C//DTD SVG 20010904//EN"
 "http://www.w3.org/TR/2001/REC-SVG-20010904/DTD/svg10.dtd">
<svg version="1.0" xmlns="http://www.w3.org/2000/svg"
 width="700.000000pt" height="700.000000pt" viewBox="0 0 700.000000 700.000000"
 preserveAspectRatio="xMidYMid meet">
<metadata>
Created by potrace 1.11, written by Peter Selinger 2001-2013
</metadata>
<g transform="translate(0.000000,700.000000) scale(0.100000,-0.100000)"
fill="#000000" stroke="none">
<path d="M2745 6744 c-447 -131 -783 -303 -1118 -574 -66 -53 -212 -199 -279
-280 -195 -232 -371 -559 -347 -643 11 -42 80 -103 124 -111 46 -9 106 8 134
38 13 13 44 71 70 128 115 251 307 494 525 663 21 17 44 35 51 42 7 7 69 49
136 93 224 146 475 262 743 341 93 27 136 45 157 65 53 51 61 122 20 187 -39
64 -113 81 -216 51z"/>
<path d="M2903 6300 c-235 -47 -722 -290 -932 -465 -239 -198 -412 -421 -515
-661 -42 -96 -47 -148 -20 -195 31 -53 68 -74 128 -74 81 1 103 23 179 177 75
151 162 276 269 386 217 223 555 416 921 528 120 36 131 43 156 93 32 66 9
147 -53 188 -41 26 -80 33 -133 23z"/>
<path d="M2968 5535 c-2 -2 -18 -6 -35 -9 -36 -7 -92 -31 -148 -65 -93 -56
-130 -110 -430 -627 -159 -274 -343 -591 -409 -704 -66 -113 -126 -217 -133
-232 -24 -46 -31 -41 -31 24 0 130 -19 207 -79 318 -48 90 -153 189 -246 234
-232 112 -424 74 -497 -99 -18 -43 -78 -272 -106 -405 -3 -14 -14 -59 -24
-101 -11 -42 -27 -109 -36 -150 -8 -41 -17 -81 -19 -89 -30 -127 -139 -663
-149 -735 -4 -22 -10 -62 -16 -90 -10 -55 -12 -69 -40 -265 -34 -245 -45 -474
-29 -582 4 -29 10 -71 13 -93 13 -103 67 -312 101 -390 7 -16 25 -59 40 -95
132 -311 389 -614 690 -814 324 -216 681 -326 1055 -326 63 0 126 2 140 4 14
3 52 7 85 10 83 8 231 40 340 75 410 130 737 371 877 646 25 49 279 488 299
517 11 15 19 29 19 32 0 2 32 58 70 125 39 67 101 176 140 244 38 67 74 129
79 137 10 16 101 172 131 225 13 24 269 466 373 645 11 19 28 50 38 68 10 18
22 38 27 45 24 29 82 158 97 212 19 71 22 203 6 262 -34 126 -134 250 -251
313 -65 34 -160 70 -189 70 -5 0 8 30 30 67 61 105 82 181 83 298 1 113 -3
137 -34 215 -60 153 -206 281 -366 322 -27 7 -50 13 -51 13 -1 0 6 27 16 60
24 77 26 204 5 275 -41 139 -117 232 -255 315 -135 80 -189 98 -299 102 -151
4 -280 -46 -370 -144 l-39 -42 -30 34 c-82 94 -220 153 -357 153 -45 0 -84 -1
-86 -3z m159 -306 c33 -16 48 -32 69 -75 42 -86 34 -123 -67 -299 -46 -81 -91
-159 -99 -174 -19 -32 -77 -136 -100 -176 -9 -16 -99 -174 -200 -350 -216
-378 -188 -329 -334 -585 -63 -113 -120 -212 -126 -220 -45 -68 -52 -140 -17
-190 44 -66 127 -90 197 -57 32 15 67 62 116 152 6 11 29 52 51 90 22 39 50
86 61 105 11 19 70 123 132 230 62 107 124 215 138 240 14 25 28 50 32 55 4 6
17 26 27 45 11 19 63 109 115 200 53 91 105 181 115 200 11 19 40 69 65 110
24 41 47 82 51 90 4 8 11 22 17 30 12 18 163 278 198 340 103 185 141 231 209
249 39 10 44 10 102 -3 68 -16 192 -100 216 -147 41 -79 29 -141 -58 -289 -27
-47 -64 -110 -82 -140 -17 -30 -71 -122 -119 -205 -48 -82 -92 -157 -97 -165
-13 -23 -256 -438 -335 -575 -38 -66 -73 -127 -79 -136 -5 -10 -17 -30 -26
-46 -8 -15 -93 -163 -189 -327 -95 -165 -177 -316 -181 -335 -27 -119 101
-217 213 -162 39 19 52 35 128 168 47 81 90 155 95 164 6 10 28 48 49 86 21
37 54 93 72 123 31 52 350 607 391 680 11 19 35 60 53 90 18 30 42 71 53 90
89 159 173 299 191 318 49 55 127 73 204 48 90 -30 155 -129 153 -233 0 -58
-22 -111 -94 -238 -31 -55 -121 -212 -185 -325 -14 -25 -78 -135 -142 -245
-64 -110 -128 -220 -142 -245 -14 -25 -48 -83 -76 -130 -111 -186 -407 -698
-433 -748 -43 -82 -29 -152 42 -205 49 -36 145 -32 186 9 12 11 58 87 108 175
29 51 185 321 196 339 5 8 117 202 248 430 132 228 252 429 267 447 110 127
364 25 364 -145 0 -51 -17 -89 -102 -236 -39 -67 -82 -141 -96 -166 -14 -25
-33 -58 -43 -75 -10 -16 -33 -57 -52 -90 -52 -91 -70 -122 -127 -220 -29 -49
-60 -103 -70 -120 -9 -16 -86 -149 -170 -295 -84 -146 -161 -278 -170 -295
-10 -16 -41 -70 -70 -120 -29 -49 -61 -106 -72 -125 -11 -19 -93 -161 -181
-315 -144 -250 -170 -288 -238 -357 -83 -83 -170 -143 -306 -212 -151 -75
-364 -147 -486 -162 -23 -3 -57 -9 -75 -14 -51 -13 -367 -4 -452 14 -41 8 -88
18 -105 21 -113 23 -306 103 -440 183 -212 126 -447 356 -564 552 -104 175
-182 400 -217 630 -7 49 -7 291 0 327 3 12 7 54 11 95 3 40 8 80 10 88 2 8 7
39 10 69 4 30 8 62 10 72 2 9 7 39 11 66 5 26 9 50 9 53 1 3 5 30 10 60 5 30
9 57 10 60 1 3 5 23 9 45 12 60 107 548 111 565 2 8 9 38 15 65 6 28 14 61 16
75 11 53 44 198 63 270 11 41 22 89 26 105 3 17 18 82 33 145 l28 115 29 -3
c37 -4 92 -33 131 -68 102 -93 114 -217 51 -524 -20 -96 -39 -191 -42 -210 -3
-19 -11 -55 -16 -80 -14 -60 -16 -72 -23 -111 -3 -19 -13 -65 -22 -104 -19
-82 -20 -135 -3 -167 38 -74 107 -107 179 -88 34 9 90 48 90 61 0 3 64 116
141 250 78 134 153 264 166 288 87 153 482 834 550 949 24 40 43 74 43 77 0 3
97 173 129 225 9 15 202 348 231 399 69 120 163 154 277 100z"/>
<path d="M6151 4689 c-103 -22 -139 -109 -97 -238 53 -163 79 -290 93 -461 12
-143 7 -359 -12 -492 -3 -21 -7 -53 -10 -70 -2 -18 -6 -44 -9 -58 -3 -14 -11
-50 -17 -80 -44 -220 -146 -495 -281 -759 -86 -167 -95 -205 -62 -262 28 -48
98 -82 152 -75 78 10 86 20 197 231 63 120 117 245 170 390 44 120 106 342
120 425 3 19 8 42 11 51 2 9 7 34 10 55 2 22 9 66 14 99 22 144 30 409 16 550
-13 130 -18 172 -26 210 -5 22 -11 54 -14 70 -11 59 -15 77 -36 153 -12 42
-23 82 -24 87 -1 6 -4 15 -7 20 -4 6 -9 23 -13 39 -10 40 -52 92 -84 104 -47
18 -56 19 -91 11z"/>
<path d="M5645 4506 c-32 -14 -84 -69 -86 -89 0 -7 -2 -23 -5 -35 -2 -13 11
-74 30 -135 19 -62 37 -125 40 -142 14 -69 17 -83 25 -140 24 -151 30 -350 16
-487 -17 -172 -71 -411 -115 -513 -12 -29 -23 -58 -25 -72 -2 -6 -36 -78 -77
-160 -80 -161 -87 -193 -52 -253 34 -58 128 -88 196 -62 36 15 66 58 136 197
99 197 160 374 208 600 19 89 36 276 37 405 1 138 -9 335 -18 350 -1 3 -6 28
-10 55 -18 142 -81 361 -117 415 -46 68 -120 94 -183 66z"/>
</g>
</svg>
