<svg width="320" height="320" viewBox="0 0 320 320" fill="none" xmlns="http://www.w3.org/2000/svg">
<g clip-path="url(#clip0)">
<path d="M27.7246 112.793L-25.3328 188.099L-8.77914 189.047C-8.77914 189.047 4.3901 170.306 4.79121 169.607L32.6806 171.205L31.5256 191.358L47.1796 192.255L51.6555 114.164L27.7246 112.793ZM33.4747 157.35L14.2221 156.247C15.595 154.34 35.2589 126.222 35.2589 126.222L33.4747 157.35Z" fill="white"/>
<path d="M78.1057 115.679L62.8115 114.803L58.3356 192.893L73.6298 193.77L78.1057 115.679Z" fill="white"/>
<path d="M104.376 117.185L89.0815 116.308L84.6056 194.399L99.8998 195.275L104.376 117.185Z" fill="white"/>
<path d="M135.481 160.307C127.328 157.674 125.601 156.311 126.157 152.913C126.512 149.864 129.134 148.209 133.453 148.457C138.671 148.756 145.045 150.927 150.437 154.485L151.306 155.076L154.208 142.245L153.678 142.034C148.065 139.185 141.49 137.364 134.113 136.941C127.095 136.539 121.034 138.358 117.028 142.1C113.794 144.983 112.117 149.039 111.87 153.358C111.359 165.423 116.921 169.172 130.4 173.375C139.272 176.049 140.989 177.592 140.742 181.91C140.525 185.689 138.104 186.994 131.986 186.644C125.508 186.272 118.445 183.521 112.565 179.032L111.696 178.44L108.784 191.452L109.313 191.663C114.017 194.64 122.129 197.993 130.945 198.499C139.402 198.983 145.813 197.365 149.999 193.633C153.233 190.75 154.909 186.694 155.208 181.476C155.432 168.13 149.13 164.7 135.481 160.307Z" fill="white"/>
<path d="M191.698 187.359L190.968 187.498C189.868 187.796 188.608 187.723 186.809 187.62C182.311 187.362 180.265 185.259 180.523 180.761C180.523 180.761 182.028 154.491 182.111 153.052C183.371 153.124 193.267 153.691 193.267 153.691L194.179 140.926C194.179 140.926 184.103 140.349 182.843 140.277C182.915 139.017 183.916 121.564 183.916 121.564L168.981 120.708C168.981 120.708 167.981 138.161 167.909 139.421C166.649 139.348 159.992 138.967 159.992 138.967L159.26 151.742C159.26 151.742 165.917 152.124 167.177 152.196C167.094 153.635 165.454 182.244 165.454 182.244C164.774 194.12 170.561 200.228 183.336 200.96C187.475 201.198 190.025 200.802 192.205 200.566L192.935 200.427L191.698 187.359Z" fill="white"/>
<path d="M226.808 141.714C217.272 141.167 210.121 143.104 204.239 144.933L203.689 145.082L204.946 157.791L205.867 157.483C212.879 154.816 218.72 153.706 224.297 154.026C230.235 154.366 232.97 157.05 232.66 162.448C232.66 162.448 232.609 163.348 232.567 164.068C209.942 165.118 198.523 172.226 197.759 185.541C197.192 195.437 203.299 202.286 213.375 202.863C220.392 203.265 226.294 201.076 231.811 196.157C232.068 197.977 232.52 202.697 232.52 202.697L245.655 203.45L247.985 162.785C248.759 149.29 242.103 142.59 226.808 141.714ZM218.734 191.256C214.955 191.039 212.75 188.566 212.956 184.967C213.338 178.31 219.873 174.532 232.021 173.604L231.278 186.559C227.484 189.772 223.052 191.503 218.734 191.256Z" fill="white"/>
<path d="M285.442 192.732L284.712 192.871C283.612 193.169 282.353 193.097 280.553 192.994C276.055 192.736 274.009 190.633 274.267 186.134C274.267 186.134 275.773 159.864 275.855 158.425C277.115 158.497 287.011 159.064 287.011 159.064L287.923 146.3C287.923 146.3 277.847 145.722 276.588 145.65C276.66 144.39 277.66 126.937 277.66 126.937L262.726 126.081C262.726 126.081 261.725 143.534 261.653 144.794C260.574 144.732 253.916 144.35 253.916 144.35L253.184 157.125C253.184 157.125 259.841 157.507 260.921 157.569C260.839 159.008 259.199 187.618 259.199 187.618C258.518 199.493 264.486 205.612 277.261 206.344C281.399 206.581 284.129 206.196 286.129 205.95L286.859 205.811L285.442 192.732Z" fill="white"/>
<path d="M338.071 191.055C330.965 195.341 325.263 197.181 318.966 196.82C310.869 196.356 305.971 190.479 305.618 180.891C307.237 180.984 341.064 182.923 341.064 182.923L341.481 178.795C342.636 158.642 334.947 147.912 318.394 146.963C311.196 146.55 305.124 148.549 300.379 152.61C294.671 157.698 291.308 165.99 290.71 176.426C289.627 195.319 299.572 207.623 316.846 208.613C325.302 209.098 332.994 207.192 339.909 203.075L340.279 202.916L339.191 190.397L338.071 191.055ZM306.375 170.825C307.579 162.41 311.467 157.578 317.405 157.918C325.322 158.372 326.899 165.503 326.887 172.001L306.375 170.825Z" fill="white"/>
</g>
<defs>
<clipPath id="clip0">
<rect width="320" height="320" fill="white"/>
</clipPath>
</defs>
</svg>
