<svg width="320" height="320" viewBox="0 0 320 320" fill="none" xmlns="http://www.w3.org/2000/svg">
<g clip-path="url(#clip0)">
<path d="M147.03 192.34C150.351 192.609 150.873 195.978 150.567 197.816C149.29 205.402 138.393 210.773 135.736 210.869C138.424 195.188 143.348 192.224 147.03 192.34ZM43.3193 185.639C40.9634 188.648 38.0305 191.941 34.467 195.571C34.7704 193.986 35.0653 192.481 35.3715 191.032C39.6652 170.423 44.0866 163.744 49.0337 165.033C50.6405 165.509 51.1655 167.326 51.0912 168.756C51.0925 173.315 48.7154 178.735 43.3193 185.639V185.639ZM325.808 228.05C323.576 224.028 321.576 219.747 319.9 215.437C316.148 219.917 312.02 224.392 307.803 228.626C313.184 228.926 319.378 228.877 325.808 228.05V228.05ZM323.123 196.615C325.543 192.821 327.144 189.477 327.523 186.926C327.836 185.416 327.791 182.76 325.622 182.584C321.874 182.281 321.386 188.299 323.123 196.615ZM255.08 216.403C265.067 206.552 271.022 191.044 270.472 184.445C270.348 183.062 269.916 181.972 268.55 182.028C264.243 182.227 252.746 200.617 255.08 216.403ZM201.315 225.943C197.814 224.498 194.992 222.226 193.417 219.901C193.278 219.997 193.15 220.082 193.01 220.165C192.982 220.33 192.934 220.499 192.873 220.659C191.7 233.963 195.261 246.64 200.362 246.458C205.761 245.961 204.174 234.343 201.315 225.943ZM194.631 209.054C205.835 199.624 215.098 185.648 215.679 177.812C215.801 176.304 215.571 174.949 214.143 174.833C210.898 174.571 199.438 184.513 194.631 209.054V209.054ZM163.538 216.77C159.34 216.811 157.655 226.2 149.299 225.981C143.595 225.835 141.565 218.556 141.565 218.556C141.565 218.556 158.233 212.468 159.407 196.5C159.518 191.906 157.825 184.397 149.324 183.708C145.652 183.411 141.395 185.446 138.772 187.857C139.941 183.607 141.163 178.126 142.137 170.622C142.772 165.739 139.367 164.987 138.027 164.952C137.032 164.922 134.085 165.445 133.335 169.848C130.822 184.532 130.445 186.712 128.493 196.025C124.912 213.129 112.353 218.161 104.527 217.069C101.197 216.602 96.1095 214.371 96.8496 205.232C97.6436 195.427 104.403 188.669 107.643 189.38C109.925 189.878 110.919 192.399 108.591 195.712C106.701 198.462 104.642 202.335 108.78 204.331C113.711 206.494 118.064 199.37 118.758 192.5C119.192 187.139 116.368 180.609 108.234 179.542C99.672 178.418 88.4463 189.408 87.1594 205.3C87.0522 206.624 87.0429 207.871 87.1147 209.066C86.2033 212.607 82.8656 216.043 79.8392 215.798C76.5517 215.532 74.1757 210.392 75.0307 204.148C75.9217 197.71 78.2293 193.562 79.2635 191.053C81.3962 185.84 79.4696 184.597 77.1135 183.94C75.2615 183.431 72.2346 183.683 70.2315 188.875C68.4121 193.586 66.0191 200.03 64.0084 204.75C62.7589 207.684 61.1963 211.02 59.3143 213.235C57.6924 214.798 55.9953 215.776 54.4904 215.654C49.1742 215.273 54.5546 204.774 55.1578 197.324C55.2766 195.214 53.9971 191.242 48.6206 191.878C55.1919 183.537 58.765 176.235 59.2042 168.512C59.5353 160.022 53.7692 157.081 49.2589 156.805C37.1751 156.086 29.7386 169.48 24.8144 201.807C13.0712 211.709 -0.697425 217.146 -13.2399 215.053C-30.9779 212.088 -38.6951 192.956 -35.7172 171.004C-31.5344 140.203 -5.26732 104.762 16.7048 108.849C24.4058 110.286 29.1787 117.923 27.0878 133.467C24.6575 151.487 10.1063 176.873 -2.93842 175.037C-8.96077 174.19 -10.3234 167.527 -9.39562 161.807C-7.38804 149.42 -1.08815 146.486 -0.276495 141.464C0.198019 138.511 -2.59427 136.977 -4.77661 137.513C-8.52364 138.442 -16.559 147.355 -18.5391 160.798C-20.959 177.221 -11.0215 183.212 -4.91213 184.069C13.161 186.613 33.0447 161.365 36.8067 133.456C39.2344 115.391 32.6664 103.069 18.5663 100.308C-8.85013 94.9479 -41.0041 130.72 -45.7238 170.535C-48.55 194.341 -39.6029 220.223 -14.1698 224.197C-2.01321 226.012 11.1873 221.985 23.1136 213.81C22.9283 215.842 22.8023 217.654 22.6863 219.014C22.5172 222.367 23.4245 225.346 26.9342 225.518C30.2845 225.666 31.3699 223.2 31.5376 220.15C31.6379 218.379 31.7899 216.664 31.9643 214.999C33.8728 200.517 40.948 198.973 43.7009 199.719C47.4866 200.882 44.1166 204.314 43.6554 214.781C43.3224 222.281 48.9814 224.747 51.6555 224.963C57.9773 225.475 63.8559 221.122 67.6513 214.234L67.7704 214.158C69.9695 221.711 74.4942 224.718 78.2761 225.024C82.7118 225.383 87.1867 222.317 90.1177 218.75C93.3261 223.753 98.4395 226.256 102.366 226.767C110.328 227.797 117.429 224.517 122.946 219.791C122.026 223.787 120.868 229.165 120.797 230.051C120.602 232.453 121.536 234.238 123.773 234.684C127.456 235.413 130.382 233.021 132.58 220.298C132.58 220.298 136.81 233.377 148.476 234.321C160.167 235.268 166.176 223.913 166.467 220.324C166.551 219.282 166.382 216.735 163.538 216.77V216.77ZM56.6476 139.969C56.9518 136.213 47.7475 128.308 40.8937 127.081C40.811 129.115 40.6266 131.2 40.3372 133.358C39.6512 138.459 38.493 143.568 36.9386 148.551C50.3806 140.328 56.3721 143.371 56.6476 139.969ZM349.944 250.679C343.09 249.749 336.384 243.868 330.648 235.787C319.216 237.566 307.679 237.167 299.671 236.453C292.44 243.101 285.593 248.573 280.771 251.607C280.771 251.607 274.25 255.974 271.61 251.603C270.096 248.69 271.223 245.775 276.259 242.987C279.405 241.236 283.414 238.33 287.793 234.7C281.094 232.177 283.388 224.826 290.022 226.231C290.504 226.337 292.699 226.848 296.104 227.384C303.34 220.647 310.774 212.818 316.607 205.565C314.696 198.635 313.782 192.123 314.188 187.108C314.721 180.524 318.9 173.362 326.18 173.951C333.227 174.522 336.334 180.983 335.817 187.361C335.378 192.784 331.633 199.869 326.187 207.394C328.441 213.792 331.484 220.492 335.044 226.298C339.48 225.171 343.889 223.572 348.089 221.391C353.747 218.438 357.853 225.34 351.859 229.062C348.278 231.028 344.368 232.545 340.307 233.703C344.114 238.247 348.257 241.432 352.429 242.154C359.573 243.381 359.155 252.218 349.944 250.679V250.679ZM281.301 225.394C280.176 228.804 275.021 238.489 263.925 237.855L263.683 237.836C258.539 237.502 253.724 234.487 250.41 229.389C244.923 232.426 239.772 233.686 236.214 232.823C228.506 230.945 226.692 224.266 226.365 219.98C221.438 225.189 215.271 227.355 209.503 227.439C211.205 231.803 211.829 236.931 211.453 241.572C210.867 248.815 206.275 255.9 199.049 255.315C188.949 254.497 184.106 239.068 184.496 224.459C182.715 224.994 179.822 225.295 178.734 222.281C177.419 218.658 181.642 215.754 185.148 214.032C188.079 185.094 201.784 165.564 214.808 166.619C219.187 166.973 224.234 170.205 223.551 178.628C222.837 187.452 216.95 198.352 208.114 207.792C206.913 209.073 204.161 211.547 201.119 214.067C211.817 223.474 219.461 214.889 222.761 209.505C223.56 208.056 224.248 206.615 224.786 205.346C226.793 200.638 226.238 201.73 228.147 197.057C230.87 190.399 234.364 190.982 235.934 191.38C241.524 192.831 237.591 199.17 235.733 204.875L235.657 205.011C232.723 214.751 233.077 222.698 238.858 224.392C240.711 224.836 244.043 223.943 247.557 221.731C241.518 199.969 255.38 175.908 267.824 174.488C271.98 174.015 277.23 176.03 277.968 183.756C278.728 191.861 275.001 202.768 268.27 212.894C266.75 215.193 262.488 220.295 257.625 224.038C257.649 224.08 257.665 224.121 257.662 224.126C260.711 229.151 265.062 229.387 265.062 229.387C271.498 229.87 273.857 224.838 274.823 222.755C275.933 220.365 277.866 219.701 279.788 220.521C281.88 221.42 281.847 223.756 281.301 225.394V225.394ZM239.239 177.689C236.51 177.467 234.111 179.605 233.877 182.486C233.645 185.353 235.668 187.86 238.397 188.081C241.122 188.302 243.512 186.152 243.744 183.285C243.978 180.404 241.964 177.909 239.239 177.689ZM292.191 214.831C298.489 215.341 301.14 212.949 301.356 210.286C301.633 206.865 297.871 204.901 293.029 204.557C288.074 204.21 284.398 205.855 284.148 208.938C283.945 211.45 285.892 214.321 292.191 214.831ZM172.288 205.143C178.605 205.655 181.28 203.25 181.496 200.579C181.775 197.142 177.997 195.174 173.123 194.829C168.149 194.481 164.465 196.134 164.214 199.226C164.01 201.752 165.97 204.632 172.288 205.143ZM80.7729 170.082C77.8999 169.85 75.3784 172.106 75.1332 175.134C74.889 178.15 77.0145 180.783 79.8875 181.016C82.7491 181.247 85.2758 178.991 85.52 175.976C85.7652 172.947 83.6345 170.314 80.7729 170.082ZM-21.6934 85.1568C-24.289 87.89 -23.9416 92.6976 -19.9704 96.8943C-16.0029 101.102 -10.1596 102.834 -7.55513 100.106C-4.95109 97.3762 -6.5763 91.2105 -10.543 87.0134C-14.5117 82.8073 -19.0782 82.4296 -21.6934 85.1568V85.1568ZM-3.06049 65.6376C-7.84182 67.4875 -10.0119 73.9732 -7.25519 82.0316C-4.50417 90.0913 1.95994 96.1637 6.7368 94.3266C11.5218 92.4743 12.8128 83.3952 10.0592 75.3335C7.30375 67.2822 1.71922 63.7945 -3.06049 65.6376ZM32.7658 58.8165C26.7661 56.9129 20.0792 61.6466 17.1283 71.766C14.1665 81.8801 16.2539 92.9347 22.2573 94.8245C28.2533 96.7199 35.9093 88.7467 38.86 78.6291C41.8175 68.5129 38.7695 60.7037 32.7658 58.8165ZM75.5683 79.1224C71.4357 72.1334 61.3655 70.9117 50.5113 78.0768C39.657 85.2444 32.7941 97.6403 36.9238 104.646C41.0565 111.635 54.6158 110.578 65.4782 103.41C76.3284 96.2413 79.6961 86.1268 75.5683 79.1224ZM22.1928 126.379C21.6432 131.742 14.8941 137.793 12.3329 132.504C11.0275 128.508 15.6659 121.806 19.4432 121.991C22.4807 122.237 22.3213 125.099 22.1928 126.379Z" fill="#637A7F"/>
</g>
<defs>
<clipPath id="clip0">
<rect width="320" height="320" fill="white"/>
</clipPath>
</defs>
</svg>
