<svg width="320" height="320" viewBox="0 0 320 320" fill="none" xmlns="http://www.w3.org/2000/svg">
<g clip-path="url(#clip0)">
<path d="M-4.78784 75.2817L-5.02214 85.1176L64.3464 86.77L64.5807 76.9341L-4.78784 75.2817ZM74.4165 77.1684L74.1822 87.0042L173.576 89.3719C173.576 89.3719 163.457 79.2894 150.515 78.9811L74.4165 77.1684ZM192.964 79.9923L192.73 89.8281L252.78 91.2585L249.391 81.3364L192.964 79.9923ZM295.982 82.4462L292.124 92.1957L351.656 93.6138L351.891 83.778L295.982 82.4462ZM-5.2441 94.4357L-5.47839 104.271L63.8901 105.924L64.1244 96.0881L-5.2441 94.4357ZM73.9602 96.3224L73.7259 106.158L184.509 108.797C184.509 108.797 183.658 101.007 181.119 98.8749L73.9602 96.3224ZM192.508 99.1462L192.274 108.982L259.054 110.573L256.182 100.663L192.508 99.1462ZM288.278 101.428L284.938 111.189L351.2 112.768L351.434 102.932L288.278 101.428ZM14.5013 113.553L14.267 123.389L44.2923 124.104L44.5266 114.268L14.5013 113.553ZM93.7058 115.44L93.4715 125.275L123.497 125.991L123.731 116.155L93.7058 115.44ZM153.239 116.858L153.004 126.694L183.029 127.409C183.029 127.409 185.223 122.281 185.334 117.622L153.239 116.858ZM212.254 118.264L212.019 128.099L265.34 129.369L261.95 119.447L212.254 118.264ZM281.622 119.916L277.764 129.665L331.602 130.948L331.837 121.112L281.622 119.916ZM14.045 132.707L13.8107 142.543L43.836 143.258L44.0703 133.422L14.045 132.707ZM93.2495 134.594L93.0152 144.43L170.149 146.267C170.149 146.267 176.484 141.238 178.666 136.628L93.2495 134.594ZM211.797 137.418L211.563 147.253L241.588 147.969L241.724 142.274L243.659 148.018L299.05 149.337L301.256 143.692L301.121 149.387L331.146 150.102L331.38 140.266L274.954 138.922L271.65 147.131L268.742 138.774L211.797 137.418ZM13.5888 151.861L13.3545 161.697L43.3798 162.412L43.6141 152.576L13.5888 151.861ZM92.7933 153.748L92.559 163.583L177.975 165.618C176.016 160.91 169.927 155.585 169.927 155.585L92.7933 153.748ZM211.341 156.572L211.107 166.407L241.132 167.123L241.366 157.287L211.341 156.572ZM247.061 157.422L250.45 167.345L291.864 168.331L295.722 158.582L247.061 157.422ZM300.381 158.693L300.147 168.528L330.172 169.244L330.406 159.408L300.381 158.693ZM13.1325 171.015L12.8982 180.851L42.9235 181.566L43.1578 171.73L13.1325 171.015ZM92.337 172.902L92.1027 182.738L122.128 183.453L122.362 173.617L92.337 172.902ZM151.87 174.32L151.635 184.156L183.731 184.92C183.842 180.261 181.895 175.035 181.895 175.035L151.87 174.32ZM210.885 175.726L210.65 185.561L240.676 186.277L240.91 176.441L210.885 175.726ZM253.334 176.737L256.724 186.659L284.678 187.325L288.536 177.575L253.334 176.737ZM299.925 177.847L299.691 187.682L329.716 188.398L329.95 178.562L299.925 177.847ZM-6.98303 189.183L-7.21732 199.019L62.1512 200.671L62.3855 190.835L-6.98303 189.183ZM71.7036 191.057L71.4693 200.893L178.628 203.446C180.748 201.424 182.486 193.696 182.486 193.696L71.7036 191.057ZM190.769 193.893L190.535 203.729L240.232 204.913L240.466 195.077L190.769 193.893ZM259.62 195.533L263.009 205.456L276.987 205.789L280.845 196.039L259.62 195.533ZM299.481 196.483L299.247 206.319L349.461 207.515L349.696 197.679L299.481 196.483ZM-7.43928 208.337L-7.67358 218.173L61.6949 219.825L61.9292 209.989L-7.43928 208.337ZM71.2473 210.211L71.013 220.047L146.594 221.847C160.053 222.168 170.123 212.566 170.123 212.566L71.2473 210.211ZM190.313 213.047L190.078 222.883L239.775 224.067L240.01 214.231L190.313 213.047ZM265.893 214.848L269.283 224.77L269.801 224.782L273.659 215.033L265.893 214.848ZM299.025 215.637L298.79 225.473L349.005 226.669L349.239 216.833L299.025 215.637Z" fill="white"/>
<path d="M-19.5594 241.388C-19.6106 242.937 -19.3798 244.402 -18.8651 245.722C-18.3515 247.073 -17.6457 248.244 -16.717 249.236C-15.7893 250.259 -14.6675 251.041 -13.3846 251.641C-12.1017 252.242 -10.6847 252.537 -9.19748 252.586C-8.39192 252.613 -7.58431 252.577 -6.83458 252.416C-6.08587 252.286 -5.24113 252.065 -4.36235 251.753L-4.9283 248.23C-5.74615 248.575 -6.46797 248.83 -7.15369 248.932C-7.83942 249.033 -8.46113 249.074 -9.08079 249.054C-10.1342 249.019 -11.0586 248.834 -11.9139 248.433C-12.7701 248.064 -13.5283 247.542 -14.1575 246.87C-14.7866 246.198 -15.2568 245.407 -15.5989 244.496C-15.942 243.616 -16.0642 242.62 -16.0273 241.505C-15.9925 240.451 -15.8048 239.465 -15.4034 238.579C-15.0019 237.692 -14.4806 236.934 -13.8084 236.305C-13.1363 235.676 -12.3453 235.206 -11.4655 234.863C-10.5867 234.55 -9.65106 234.395 -8.59763 234.43C-7.35831 234.471 -6.22115 234.788 -5.1841 235.318C-4.17804 235.848 -3.30205 236.559 -2.5231 237.391L-0.741514 234.162C-1.76423 233.198 -2.948 232.414 -4.23189 231.845C-5.51578 231.275 -6.9008 230.95 -8.38799 230.901C-9.93715 230.85 -11.3716 231.082 -12.6913 231.596C-14.011 232.111 -15.182 232.817 -16.1742 233.745C-17.1984 234.704 -17.9799 235.826 -18.5806 237.109C-19.1823 238.423 -19.5082 239.839 -19.5594 241.388ZM-1.30666 245.093C-1.34556 246.27 -1.19651 247.391 -0.795509 248.397C-0.425485 249.402 0.103548 250.288 0.823599 251.025C1.54365 251.762 2.39275 252.349 3.3709 252.784C4.34905 253.22 5.45831 253.442 6.63567 253.481C7.81302 253.52 8.90357 253.37 9.90834 253C10.9131 252.63 11.799 252.101 12.5662 251.413C13.3333 250.725 13.9197 249.876 14.3862 248.899C14.8217 247.921 15.0755 246.812 15.1143 245.635C15.1532 244.458 14.9722 243.366 14.6022 242.361C14.2012 241.356 13.6721 240.47 12.9521 239.732C12.232 238.995 11.3829 238.409 10.4048 237.973C9.42665 237.538 8.34941 237.285 7.17205 237.246C5.99469 237.207 4.87213 237.387 3.86737 237.757C2.8626 238.127 1.97665 238.656 1.20951 239.344C0.442369 240.033 -0.143988 240.882 -0.579525 241.86C-1.04605 242.837 -1.26776 243.915 -1.30666 245.093ZM11.6752 245.521C11.6507 246.265 11.5052 246.912 11.2379 247.492C10.9696 248.104 10.6434 248.589 10.1953 249.008C9.74721 249.428 9.24124 249.721 8.67536 249.951C8.07849 250.179 7.42478 250.251 6.74315 250.228C6.03054 250.205 5.38296 250.09 4.83346 249.824C4.25297 249.557 3.76747 249.23 3.34804 248.782C2.92861 248.334 2.63515 247.828 2.40776 247.2C2.17935 246.603 2.10789 245.95 2.13246 245.206C2.156 244.494 2.27045 243.846 2.53879 243.235C2.8061 242.654 3.13231 242.169 3.5804 241.749C4.0285 241.33 4.53446 241.036 5.13133 240.808C5.69722 240.578 6.35196 240.476 7.06457 240.499C7.7462 240.522 8.39275 240.667 8.97324 240.935C9.52274 241.201 10.0082 241.527 10.4276 241.975C10.8471 242.423 11.1405 242.929 11.3689 243.526C11.5963 244.154 11.6988 244.809 11.6752 245.521ZM21.3897 240.539L21.4705 238.091L18.2483 237.984L17.7365 253.476L21.0827 253.586L21.3171 246.491C21.3713 244.849 21.7231 243.589 22.4045 242.681C23.0548 241.772 24.1856 241.344 25.7347 241.395C26.0446 241.406 26.3224 241.446 26.6002 241.486C26.877 241.557 27.1548 241.597 27.4316 241.669L27.5494 238.106C27.0577 237.965 26.5331 237.886 26.0373 237.87C24.9219 237.833 24.0152 238.051 23.2553 238.522C22.4953 238.993 21.8831 239.686 21.3897 240.539ZM37.408 251.303C36.0138 251.257 34.9127 250.787 34.0749 249.859C33.236 248.963 32.8732 247.742 32.9233 246.223C32.9725 244.736 33.4152 243.541 34.3124 242.671C35.2086 241.833 36.3393 241.405 37.7336 241.451C39.1278 241.497 40.2278 241.998 41.0657 242.926C41.8715 243.883 42.2664 245.074 42.2183 246.531C42.1691 248.018 41.6965 249.181 40.8302 250.052C39.932 250.952 38.8023 251.349 37.408 251.303ZM29.2714 260.06L32.6176 260.171L32.896 251.744C33.4602 252.507 34.1833 253.151 35.0344 253.675C35.8856 254.2 36.9308 254.482 38.1701 254.523C39.1616 254.556 40.0962 254.432 40.976 254.089C41.8558 253.746 42.6478 253.244 43.322 252.553C43.9952 251.893 44.5505 251.043 44.9551 250.064C45.3596 249.085 45.6144 247.945 45.6574 246.644C45.6983 245.405 45.5193 244.251 45.1813 243.217C44.8423 242.213 44.3442 241.328 43.7161 240.625C43.088 239.922 42.3318 239.338 41.4766 238.938C40.6213 238.537 39.667 238.32 38.6755 238.287C37.4362 238.246 36.3746 238.459 35.4917 238.895C34.6088 239.331 33.8448 239.926 33.2615 240.683L33.3342 238.483L29.988 238.372L29.2714 260.06ZM47.4675 246.704C47.4286 247.881 47.5776 249.003 47.9786 250.009C48.3487 251.013 48.8777 251.899 49.5977 252.637C50.3178 253.374 51.1669 253.96 52.145 254.396C53.1232 254.831 54.2324 255.054 55.4098 255.093C56.5872 255.132 57.6777 254.982 58.6825 254.612C59.6872 254.242 60.5732 253.713 61.3403 253.024C62.1075 252.336 62.6938 251.487 63.1604 250.51C63.5959 249.532 63.8496 248.424 63.8885 247.246C63.9274 246.069 63.7464 244.978 63.3763 243.973C62.9753 242.967 62.4463 242.081 61.7262 241.344C61.0062 240.607 60.1571 240.02 59.1789 239.585C58.2008 239.149 57.1235 238.897 55.9462 238.858C54.7688 238.819 53.6463 238.999 52.6415 239.369C51.6367 239.739 50.7508 240.268 49.9837 240.956C49.2165 241.644 48.6302 242.493 48.1946 243.471C47.7281 244.448 47.5064 245.527 47.4675 246.704ZM60.4494 247.133C60.4248 247.876 60.2794 248.523 60.0121 249.104C59.7437 249.715 59.4175 250.2 58.9694 250.62C58.5213 251.039 58.0154 251.333 57.4495 251.562C56.8526 251.791 56.1989 251.862 55.5173 251.84C54.8047 251.816 54.1571 251.702 53.6076 251.435C53.0271 251.168 52.5416 250.842 52.1222 250.394C51.7027 249.946 51.4093 249.44 51.1819 248.812C50.9535 248.215 50.882 247.561 50.9066 246.818C50.9301 246.105 51.0446 245.457 51.3129 244.846C51.5802 244.265 51.9064 243.78 52.3545 243.361C52.8026 242.941 53.3086 242.648 53.9055 242.419C54.4714 242.19 55.1261 242.087 55.8387 242.111C56.5203 242.133 57.1669 242.279 57.7474 242.546C58.2969 242.812 58.7824 243.139 59.2018 243.587C59.6212 244.035 59.9147 244.541 60.1431 245.138C60.3705 245.766 60.4729 246.42 60.4494 247.133ZM70.1638 242.15L70.2447 239.702L67.0225 239.596L66.5106 255.087L69.8568 255.198L70.0912 248.103C70.1455 246.461 70.4973 245.201 71.1786 244.293C71.829 243.384 72.9598 242.956 74.5089 243.007C74.8187 243.017 75.0966 243.057 75.3744 243.097C75.6512 243.169 75.929 243.209 76.2058 243.28L76.3235 239.717C75.8319 239.577 75.3072 239.497 74.8115 239.481C73.6961 239.444 72.7894 239.662 72.0294 240.133C71.2695 240.605 70.6572 241.298 70.1638 242.15ZM87.1478 248.604L87.1181 249.503C87.1027 249.968 86.9635 250.428 86.7632 250.856C86.563 251.283 86.2708 251.677 85.9188 252.007C85.5357 252.335 85.0927 252.6 84.5909 252.769C84.057 252.969 83.4652 253.042 82.8456 253.022C81.978 252.993 81.3635 252.818 80.942 252.431C80.5205 252.045 80.35 251.574 80.3705 250.955C80.3868 250.459 80.5561 250.03 80.9402 249.671C81.3243 249.311 81.8891 249.113 82.6678 249.015L87.1478 248.604ZM77.6149 243.296L80.2541 245.089C80.4996 244.228 80.9838 243.655 81.7397 243.308C82.4646 242.96 83.3073 242.801 84.2678 242.833C85.2902 242.867 86.0576 243.109 86.5411 243.497C87.0245 243.886 87.287 244.391 87.2675 244.979L87.2563 245.32C87.242 245.754 86.925 245.96 86.3342 246.003L82.0133 246.294C80.5839 246.371 79.3592 246.827 78.4031 247.602C77.446 248.408 76.9444 249.508 76.8973 250.933C76.8737 251.646 76.9762 252.3 77.2046 252.897C77.433 253.494 77.7575 254.001 78.1769 254.449C78.5963 254.897 79.1438 255.226 79.7862 255.495C80.4287 255.764 81.1692 255.882 81.9748 255.908C83.1521 255.947 84.1508 255.763 84.9717 255.325C85.7916 254.918 86.4617 254.351 86.982 253.624L86.9113 255.761L90.2575 255.872L90.582 246.05C90.6475 244.067 90.14 242.531 89.1203 241.474C88.0996 240.447 86.4749 239.866 84.3061 239.795C82.4781 239.734 81.0107 240.027 79.9048 240.642C78.7978 241.288 78.0245 242.161 77.6149 243.296ZM102.55 255.999L102.652 252.932C102.153 253.008 101.717 253.056 101.375 253.075C101.032 253.126 100.661 253.114 100.258 253.101C99.6381 253.08 99.2084 252.942 98.9698 252.655C98.7311 252.368 98.6205 251.961 98.6389 251.403L98.8999 243.503L102.99 243.638L103.084 240.787L98.9941 240.652L99.1313 236.5L95.7851 236.39L95.6479 240.542L92.7045 240.444L92.6104 243.295L95.5538 243.392L95.2856 251.51C95.2282 253.245 95.5601 254.465 96.2812 255.171C97.0013 255.909 98.1054 256.286 99.5306 256.333C100.522 256.366 101.549 256.276 102.55 255.999ZM104.167 248.639C104.127 249.848 104.277 250.938 104.616 251.942C104.955 252.946 105.485 253.801 106.143 254.536C106.801 255.271 107.65 255.857 108.63 256.262C109.608 256.697 110.748 256.921 111.987 256.962C113.444 257.01 114.691 256.803 115.73 256.341C116.738 255.878 117.594 255.317 118.265 254.719L116.774 251.971C116.198 252.511 115.531 252.985 114.775 253.332C113.987 253.709 113.082 253.865 112.06 253.832C111.502 253.813 110.946 253.733 110.426 253.53C109.904 253.357 109.448 253.094 109.024 252.77C108.601 252.446 108.274 252.001 108.012 251.496C107.749 250.991 107.582 250.427 107.542 249.743L107.543 249.712L119.441 250.105L119.473 249.145C119.511 247.968 119.362 246.846 119.085 245.844C118.777 244.842 118.31 243.958 117.715 243.194C117.088 242.46 116.301 241.875 115.385 241.442C114.469 241.008 113.391 240.756 112.214 240.717C111.006 240.677 109.914 240.858 108.939 241.26C107.964 241.662 107.14 242.193 106.434 242.914C105.728 243.635 105.204 244.486 104.799 245.465C104.395 246.445 104.204 247.524 104.167 248.639ZM115.869 247.444L107.658 247.173C107.881 246.063 108.374 245.211 109.109 244.584C109.812 243.956 110.814 243.648 112.054 243.689C113.262 243.729 114.18 244.1 114.808 244.804C115.436 245.507 115.78 246.386 115.869 247.444ZM130.919 241.552C130.885 242.605 131.042 243.479 131.39 244.204C131.738 244.929 132.215 245.534 132.818 246.05C133.39 246.565 134.028 246.958 134.762 247.293C135.464 247.626 136.168 247.929 136.874 248.138C137.364 248.34 137.854 248.512 138.314 248.682C138.773 248.883 139.169 249.082 139.534 249.311C139.866 249.571 140.136 249.859 140.343 250.176C140.517 250.523 140.628 250.929 140.612 251.425C140.584 252.262 140.284 252.903 139.712 253.319C139.14 253.734 138.358 253.925 137.366 253.892C135.229 253.822 133.963 252.694 133.54 250.478L130.362 251.862C130.546 252.861 130.859 253.708 131.332 254.406C131.805 255.104 132.346 255.65 132.982 256.105C133.587 256.559 134.291 256.861 135.028 257.072C135.766 257.282 136.506 257.4 137.25 257.424C138.148 257.454 139.02 257.359 139.834 257.138C140.647 256.916 141.373 256.537 142.01 256.031C142.646 255.556 143.133 254.92 143.53 254.158C143.895 253.426 144.111 252.533 144.145 251.511C144.176 250.55 144.049 249.709 143.762 249.017C143.475 248.325 143.059 247.753 142.549 247.24C142.008 246.726 141.401 246.302 140.699 245.969C139.996 245.636 139.263 245.301 138.498 244.997C137.884 244.791 137.333 244.586 136.843 244.384C136.353 244.182 135.926 243.981 135.562 243.721C135.198 243.492 134.897 243.203 134.721 242.887C134.515 242.57 134.434 242.195 134.45 241.699C134.473 241.018 134.741 240.406 135.315 239.929C135.858 239.451 136.672 239.229 137.726 239.264C138.655 239.295 139.452 239.569 140.087 240.087C140.721 240.604 141.16 241.394 141.433 242.519L144.73 241.295C144.352 239.607 143.559 238.247 142.351 237.277C141.142 236.306 139.639 235.792 137.904 235.734C136.975 235.704 136.071 235.829 135.257 236.05C134.412 236.301 133.686 236.68 133.05 237.156C132.413 237.662 131.895 238.296 131.53 239.029C131.134 239.76 130.95 240.622 130.919 241.552ZM146.648 250.043C146.608 251.251 146.758 252.342 147.097 253.345C147.436 254.349 147.966 255.204 148.624 255.939C149.282 256.674 150.131 257.261 151.11 257.665C152.089 258.101 153.229 258.325 154.468 258.366C155.924 258.414 157.172 258.207 158.211 257.745C159.218 257.282 160.074 256.721 160.746 256.123L159.254 253.375C158.678 253.914 158.011 254.388 157.255 254.736C156.468 255.113 155.563 255.269 154.54 255.235C153.983 255.217 153.427 255.136 152.907 254.933C152.385 254.761 151.928 254.498 151.505 254.173C151.081 253.849 150.755 253.404 150.492 252.899C150.23 252.394 150.062 251.83 150.023 251.147L150.024 251.116L161.922 251.509L161.953 250.548C161.992 249.371 161.843 248.25 161.566 247.248C161.258 246.245 160.791 245.361 160.196 244.597C159.569 243.863 158.782 243.279 157.865 242.845C156.949 242.412 155.872 242.159 154.695 242.12C153.486 242.08 152.395 242.261 151.42 242.663C150.445 243.065 149.621 243.596 148.915 244.317C148.209 245.039 147.684 245.89 147.28 246.869C146.875 247.848 146.684 248.927 146.648 250.043ZM158.349 248.847L150.139 248.576C150.362 247.467 150.855 246.615 151.589 245.988C152.292 245.36 153.295 245.052 154.534 245.092C155.743 245.132 156.661 245.504 157.289 246.207C157.917 246.91 158.26 247.79 158.349 248.847ZM168.106 245.386L168.186 242.938L164.964 242.832L164.452 258.323L167.799 258.434L168.033 251.339C168.087 249.697 168.439 248.436 169.12 247.528C169.771 246.619 170.901 246.192 172.451 246.243C172.76 246.253 173.038 246.293 173.316 246.333C173.593 246.405 173.871 246.445 174.147 246.516L174.265 242.953C173.774 242.813 173.249 242.733 172.753 242.717C171.638 242.68 170.731 242.898 169.971 243.369C169.211 243.84 168.599 244.534 168.106 245.386ZM181.211 258.877L183.814 258.963L191.204 243.699L187.393 243.573L182.669 254.179L178.656 243.284L174.845 243.158L181.211 258.877ZM192.967 239.29C192.944 239.972 193.142 240.537 193.593 240.986C194.011 241.465 194.562 241.7 195.243 241.723C195.894 241.744 196.459 241.546 196.939 241.097C197.387 240.677 197.653 240.128 197.676 239.446C197.697 238.795 197.468 238.229 197.05 237.75C196.599 237.301 196.05 237.035 195.399 237.013C194.717 236.991 194.152 237.22 193.703 237.64C193.223 238.089 192.988 238.64 192.967 239.29ZM196.847 243.885L193.501 243.774L192.989 259.266L196.335 259.377L196.847 243.885ZM199.689 251.764C199.649 252.972 199.799 254.063 200.169 255.068C200.508 256.072 201.037 256.957 201.726 257.694C202.384 258.429 203.234 259.015 204.213 259.42C205.191 259.855 206.269 260.077 207.508 260.118C208.81 260.161 209.963 259.982 210.969 259.581C211.975 259.18 212.798 258.68 213.502 258.021L211.669 255.293C211.157 255.772 210.555 256.155 209.894 256.444C209.232 256.763 208.483 256.893 207.616 256.865C206.934 256.842 206.318 256.729 205.768 256.462C205.218 256.227 204.732 255.901 204.344 255.454C203.924 255.006 203.631 254.5 203.403 253.872C203.175 253.275 203.105 252.59 203.129 251.847C203.154 251.103 203.268 250.456 203.537 249.844C203.804 249.264 204.13 248.778 204.578 248.359C204.995 247.938 205.501 247.645 206.098 247.416C206.663 247.218 207.287 247.114 207.968 247.137C208.774 247.164 209.512 247.343 210.122 247.673C210.731 248.004 211.245 248.424 211.725 248.905L213.826 246.338C213.136 245.633 212.318 245.047 211.402 244.614C210.454 244.179 209.377 243.927 208.169 243.887C206.929 243.846 205.807 244.026 204.802 244.396C203.797 244.766 202.911 245.295 202.175 245.984C201.407 246.703 200.822 247.521 200.386 248.499C199.951 249.478 199.728 250.587 199.689 251.764ZM215.089 252.304C215.049 253.512 215.199 254.603 215.538 255.607C215.877 256.61 216.407 257.465 217.065 258.2C217.723 258.936 218.572 259.522 219.552 259.926C220.53 260.362 221.67 260.586 222.909 260.627C224.365 260.675 225.613 260.468 226.652 260.006C227.66 259.543 228.516 258.982 229.187 258.384L227.696 255.636C227.12 256.175 226.453 256.65 225.697 256.997C224.909 257.374 224.004 257.53 222.982 257.496C222.424 257.478 221.868 257.398 221.348 257.194C220.826 257.022 220.37 256.759 219.946 256.435C219.523 256.11 219.196 255.665 218.934 255.16C218.671 254.656 218.504 254.092 218.464 253.408L218.465 253.377L230.363 253.77L230.394 252.81C230.433 251.632 230.284 250.511 230.007 249.509C229.699 248.506 229.232 247.622 228.637 246.858C228.01 246.124 227.223 245.54 226.307 245.106C225.39 244.673 224.313 244.42 223.136 244.381C221.927 244.341 220.836 244.522 219.861 244.924C218.886 245.327 218.062 245.858 217.356 246.579C216.65 247.3 216.126 248.151 215.721 249.13C215.316 250.109 215.126 251.189 215.089 252.304ZM226.791 251.109L218.58 250.837C218.803 249.728 219.296 248.876 220.03 248.249C220.734 247.621 221.736 247.313 222.976 247.354C224.184 247.394 225.102 247.765 225.73 248.468C226.358 249.171 226.702 250.051 226.791 251.109ZM241.225 250.004C241.174 251.553 241.405 253.018 241.919 254.338C242.433 255.689 243.139 256.86 244.067 257.852C244.995 258.875 246.117 259.657 247.4 260.257C248.683 260.858 250.1 261.153 251.587 261.202C252.393 261.229 253.2 261.193 253.95 261.032C254.699 260.902 255.543 260.681 256.422 260.369L255.856 256.846C255.038 257.191 254.316 257.446 253.631 257.547C252.945 257.649 252.323 257.69 251.704 257.67C250.65 257.635 249.726 257.449 248.871 257.049C248.014 256.68 247.256 256.158 246.627 255.486C245.998 254.814 245.528 254.023 245.186 253.112C244.842 252.232 244.72 251.236 244.757 250.12C244.792 249.067 244.98 248.081 245.381 247.194C245.783 246.308 246.304 245.55 246.976 244.921C247.648 244.292 248.439 243.822 249.319 243.478C250.198 243.166 251.133 243.011 252.187 243.046C253.426 243.087 254.563 243.404 255.6 243.934C256.606 244.464 257.482 245.175 258.261 246.007L260.043 242.778C259.02 241.814 257.836 241.03 256.553 240.461C255.269 239.891 253.884 239.566 252.396 239.517C250.847 239.466 249.413 239.697 248.093 240.212C246.773 240.727 245.602 241.433 244.61 242.361C243.586 243.32 242.805 244.442 242.204 245.725C241.602 247.039 241.276 248.455 241.225 250.004ZM259.478 253.708C259.439 254.886 259.588 256.007 259.989 257.013C260.359 258.018 260.888 258.904 261.608 259.641C262.328 260.378 263.177 260.965 264.155 261.4C265.133 261.836 266.243 262.058 267.42 262.097C268.597 262.136 269.688 261.986 270.693 261.616C271.698 261.246 272.583 260.717 273.351 260.029C274.118 259.341 274.704 258.492 275.171 257.515C275.606 256.537 275.86 255.428 275.899 254.251C275.938 253.074 275.757 251.982 275.387 250.977C274.986 249.971 274.457 249.086 273.737 248.348C273.016 247.611 272.167 247.025 271.189 246.589C270.211 246.154 269.134 245.901 267.956 245.862C266.779 245.823 265.657 246.003 264.652 246.373C263.647 246.743 262.761 247.272 261.994 247.96C261.227 248.648 260.64 249.498 260.205 250.476C259.738 251.453 259.517 252.531 259.478 253.708ZM272.46 254.137C272.435 254.881 272.29 255.527 272.022 256.108C271.754 256.719 271.428 257.205 270.98 257.624C270.532 258.044 270.026 258.337 269.46 258.567C268.863 258.795 268.209 258.867 267.528 258.844C266.815 258.821 266.167 258.706 265.618 258.44C265.037 258.172 264.552 257.846 264.132 257.398C263.713 256.95 263.42 256.444 263.192 255.816C262.964 255.219 262.892 254.566 262.917 253.822C262.94 253.109 263.055 252.462 263.323 251.85C263.591 251.27 263.917 250.784 264.365 250.365C264.813 249.946 265.319 249.652 265.916 249.424C266.482 249.194 267.136 249.092 267.849 249.115C268.531 249.138 269.177 249.283 269.758 249.551C270.307 249.817 270.793 250.143 271.212 250.591C271.632 251.039 271.925 251.545 272.153 252.142C272.381 252.77 272.483 253.425 272.46 254.137ZM282.174 249.154L282.255 246.707L279.033 246.6L278.521 262.092L281.867 262.202L282.102 255.107C282.156 253.465 282.508 252.205 283.189 251.297C283.839 250.388 284.97 249.96 286.519 250.011C286.829 250.022 287.107 250.062 287.385 250.102C287.661 250.173 287.939 250.213 288.216 250.285L288.334 246.721C287.842 246.581 287.318 246.502 286.822 246.485C285.706 246.449 284.8 246.667 284.04 247.138C283.28 247.609 282.668 248.302 282.174 249.154ZM298.193 259.919C296.798 259.873 295.697 259.403 294.859 258.475C294.021 257.579 293.658 256.358 293.708 254.839C293.757 253.352 294.2 252.157 295.097 251.287C295.993 250.448 297.124 250.021 298.518 250.067C299.912 250.113 301.012 250.614 301.85 251.541C302.656 252.499 303.051 253.69 303.003 255.146C302.954 256.634 302.481 257.797 301.615 258.668C300.716 259.568 299.587 259.965 298.193 259.919ZM290.056 268.676L293.402 268.787L293.681 260.359C294.245 261.122 294.968 261.767 295.819 262.291C296.67 262.816 297.715 263.098 298.955 263.139C299.946 263.172 300.881 263.048 301.76 262.705C302.64 262.361 303.432 261.86 304.106 261.169C304.78 260.509 305.335 259.659 305.74 258.68C306.144 257.701 306.399 256.561 306.442 255.26C306.483 254.021 306.304 252.867 305.966 251.832C305.627 250.829 305.129 249.944 304.501 249.241C303.872 248.538 303.116 247.954 302.261 247.554C301.406 247.153 300.451 246.936 299.46 246.903C298.221 246.862 297.159 247.075 296.276 247.511C295.393 247.947 294.629 248.542 294.046 249.298L294.119 247.099L290.772 246.988L290.056 268.676ZM308.923 251.961C308.895 252.829 309.026 253.546 309.348 254.115C309.671 254.684 310.089 255.163 310.636 255.523C311.15 255.912 311.73 256.21 312.374 256.418C313.019 256.625 313.633 256.8 314.249 256.945C315.418 257.232 316.277 257.508 316.827 257.774C317.376 258.041 317.642 258.453 317.622 259.041C317.602 259.661 317.34 260.087 316.836 260.318C316.332 260.55 315.677 260.652 314.903 260.626C313.88 260.593 312.956 260.407 312.1 260.006C311.245 259.606 310.614 258.996 310.176 258.175L307.81 260.299C308.424 261.436 309.328 262.241 310.551 262.778C311.743 263.313 313.098 263.606 314.585 263.656C315.515 263.686 316.354 263.621 317.135 263.461C317.916 263.3 318.577 263.012 319.148 262.628C319.719 262.243 320.17 261.731 320.5 261.121C320.831 260.512 321.009 259.805 321.038 258.937C321.065 258.1 320.933 257.414 320.641 256.846C320.35 256.278 319.993 255.832 319.509 255.444C319.025 255.086 318.445 254.788 317.832 254.582C317.218 254.375 316.574 254.168 315.928 253.992C314.697 253.703 313.807 253.425 313.195 253.157C312.583 252.92 312.317 252.508 312.337 251.919C312.352 251.454 312.581 251.09 313.055 250.826C313.528 250.594 314.153 250.459 314.927 250.485C315.888 250.516 316.718 250.73 317.388 251.124C318.057 251.519 318.6 251.971 318.954 252.541L321.287 250.447C320.665 249.558 319.882 248.849 318.907 248.321C317.932 247.792 316.702 247.473 315.215 247.423C313.263 247.359 311.73 247.743 310.649 248.544C309.536 249.376 308.972 250.505 308.923 251.961Z" fill="white"/>
</g>
<defs>
<clipPath id="clip0">
<rect width="320" height="320" fill="white"/>
</clipPath>
</defs>
</svg>
