<svg width="320" height="320" viewBox="0 0 320 320" fill="none" xmlns="http://www.w3.org/2000/svg">
<g clip-path="url(#clip0)">
<path d="M292.998 150.344L323.214 110.721C327.544 105.044 326.447 96.9302 320.773 92.6035C315.098 88.2739 306.981 89.3684 302.653 95.0442L274.374 132.132L241.029 99.5244C235.923 94.5338 227.74 94.6247 222.747 99.7302C217.758 104.835 217.847 113.019 222.952 118.01L258.577 152.847L228.361 192.47C224.031 198.147 225.128 206.261 230.802 210.587C236.477 214.917 244.593 213.823 248.922 208.147L277.2 171.059L310.546 203.666C315.652 208.657 323.835 208.566 328.829 203.461C333.817 198.356 333.728 190.172 328.623 185.181L292.998 150.344Z" fill="white"/>
<path d="M144.504 222.531C110.837 224.979 81.4522 199.581 79.0042 165.91C76.5562 132.238 101.958 102.857 135.626 100.41C169.292 97.9621 198.678 123.36 201.126 157.031C203.574 190.703 178.172 220.084 144.504 222.531ZM137.501 126.199C118.052 127.613 103.38 144.586 104.794 164.035C106.207 183.482 123.181 198.156 142.629 196.742C162.077 195.328 176.75 178.355 175.336 158.906C173.923 139.458 156.949 124.785 137.501 126.199Z" fill="white"/>
<path d="M25.8265 231.159C-7.84505 233.607 -37.2259 208.204 -39.6736 174.538C-42.1212 140.871 -16.7235 111.486 16.9481 109.038C27.8875 108.242 38.8379 110.394 48.6161 115.256C55.0096 118.436 57.6129 126.196 54.4351 132.589C51.2575 138.983 43.4949 141.586 37.1016 138.406C31.4687 135.605 25.1466 134.366 18.8253 134.825C-0.623257 136.239 -15.2958 153.213 -13.8818 172.661C-12.4679 192.11 4.50534 206.782 23.9539 205.368C30.2758 204.909 36.3528 202.768 41.5201 199.182C47.3864 195.111 55.4413 196.564 59.5127 202.43C63.5818 208.297 62.1328 216.351 56.262 220.423C47.289 226.648 36.7645 230.361 25.8263 231.156L25.8265 231.159Z" fill="white"/>
</g>
<defs>
<clipPath id="clip0">
<rect width="320" height="320" fill="white"/>
</clipPath>
</defs>
</svg>
