<svg width="320" height="320" viewBox="0 0 320 320" fill="none" xmlns="http://www.w3.org/2000/svg">
<g clip-path="url(#clip0)">
<path d="M286.895 136.867C280.497 138.951 263.32 141.329 263.32 141.329L261.805 148.295C261.805 148.295 270.282 146.808 276.59 146.859C276.59 146.859 278.585 146.513 279.022 148.881C279.353 151.315 279.302 153.894 279.302 153.894C279.302 153.894 279.269 155.409 277.238 155.983C274.872 156.586 258.746 158.758 258.746 158.758L256.908 167.768C256.908 167.768 256.137 169.853 258.265 169.102C260.225 168.367 276.909 163.626 279.182 163.871C281.577 164.216 284.545 167.197 284.022 170.155C283.442 173.735 267.434 186.029 257.097 186.227C257.097 186.227 251.711 187.045 246.538 180.174C241.561 173.621 246.255 160.044 246.255 160.044C246.255 160.044 243.084 154.17 244.839 151.773C244.839 151.773 245.871 150.729 249.196 150.152L252.617 141.223C252.617 141.223 247.897 141.926 244.797 138.732C241.93 135.63 241.578 134.206 243.508 133.137C245.53 131.837 264.869 126.578 278.42 125.813C278.42 125.813 283.116 124.832 288.034 132.622C288.034 132.622 290.231 135.784 286.95 136.862L286.895 136.867ZM238.921 174.306C237.609 178.51 233.358 183.201 227.541 181.091C221.608 178.935 210.988 161.522 210.988 161.522C210.988 161.522 207.032 155.046 206.382 155.328C206.382 155.328 205.537 154.061 205.812 161.538C205.915 168.975 207.873 183.3 205.006 185.852C202.414 188.323 198.979 187.679 196.847 185.239C195.05 182.768 193.818 176.552 193.732 165.531C193.757 154.499 195.225 142.611 198.085 138.716C201.106 134.75 204.025 137.176 205.119 138.086C205.119 138.086 209.766 141.589 218.054 152.436L219.471 154.437C219.471 154.437 227.038 164.788 227.703 164.673C227.703 164.673 228.311 165.178 228.718 164.694C229.373 164.467 228.832 160.933 228.832 160.933C228.832 160.933 226.544 149.212 218.613 129.768C218.613 129.768 217.491 127.293 217.886 124.794C218.246 122.522 220.746 123.418 220.746 123.418C220.746 123.418 230.411 127.032 236.276 141.623C242.085 156.219 240.289 170.096 238.977 174.301L238.921 174.306ZM190.029 139.885C189.275 141.52 189.078 143.721 185.28 144.677C185.28 144.677 148.108 150.637 146.499 153.412C146.499 153.412 145.41 155.077 147.455 155.286C149.616 155.54 158.202 155.891 162.241 155.753C166.596 155.364 181.234 154.165 187.18 160.239C187.18 160.239 190.529 163.074 191.049 170.138C191.584 177.368 190.529 180.038 187.915 182.903C185.175 185.612 160.842 199.212 142.932 183.348C142.932 183.348 134.705 175.686 144.244 168.45C144.244 168.45 151.104 163.357 170.158 166.858C170.158 166.858 175.92 168.357 175.881 170.432C175.744 172.684 171.644 175.29 165.381 175.739C159.337 176.112 154.612 173.624 155.55 174.044C156.412 174.247 148.699 171.074 146.644 173.89C144.63 176.533 145.317 177.927 147.685 179.227C153.556 181.949 175.393 178.818 181.274 170.957C181.274 170.957 183.634 167.778 179.457 165.745C175.35 163.873 163.836 163.505 159.41 163.733C155.203 163.886 139.535 165.512 136.827 161.668C136.827 161.668 134.335 158.98 136.085 150.873C137.908 142.312 155.876 137.456 163.744 136.08C163.744 136.08 185.438 133.242 189.912 137.32C189.912 137.32 190.56 138.27 190.024 139.829L190.029 139.885ZM132.651 194.234C130.201 196.412 124.544 196.079 122.726 194.002C120.989 192.199 119.744 184.584 118.944 172.507C118.231 160.142 117.046 145.02 119.619 142.326C122.196 139.688 124.06 141.648 125.321 143.159C126.587 144.725 128.202 146.428 128.769 150.241C129.452 154.098 132.191 174.008 132.191 174.008C132.191 174.008 135.051 192.115 132.707 194.229L132.651 194.234ZM132.416 128.751C124.946 132.052 119.623 131.688 114.982 130.144C113.342 133.818 112.264 134.979 110.832 135.331C108.619 135.753 106.346 132.373 105.968 131.287C105.446 130.494 104.251 129.09 105.232 125.587C100.529 122.089 99.7269 116.898 100.195 113.329C100.832 109.129 106.819 93.0289 128.988 89.1966C128.988 89.1966 139.861 87.4393 142.276 93.0456L142.611 93.0156C142.611 93.0156 153.219 92.0658 153.841 101.528C154.686 110.97 144.016 123.794 132.431 128.918L132.416 128.751ZM139.947 100.98C133.012 102.721 123.017 113.021 118.516 121.206C126.629 121.935 140.536 120.13 145.666 107.018C145.666 107.018 147.919 98.8668 139.947 100.98ZM109.62 109.854C107.71 113.664 107.792 115.84 108.983 117.189C111.258 113.066 115.345 106.542 121.897 101.141C116.587 102.176 112.263 104.802 109.62 109.854ZM307.478 178.189C303.465 191.201 300.249 204.309 299.442 223.585C299.442 223.585 299.217 227.356 296.037 226.409C292.867 225.573 287.395 221.024 285.647 214.071C283.705 204.951 286.444 189.03 293.273 170.391C290.468 166.723 288.22 161.102 288.89 152.868C288.89 152.868 289.781 137.672 303.642 122.771C303.642 122.771 305.294 121.111 306.344 121.521C307.622 121.966 307.547 126.788 306.761 129.322C306.076 131.734 300.411 143.887 300.411 143.887C300.411 143.887 296.93 152.148 298.654 158.208C305.498 145.391 321.333 119.227 333.196 126.003C340.734 130.367 342.176 146.474 337.707 156.279C334.181 164.041 323.713 180.374 307.594 178.234L307.478 178.189ZM327.438 138.387C323.705 143.201 317.091 152.303 312.309 164.264C318.391 163.047 324.061 159.125 325.75 157.238C328.475 154.363 334.655 146.699 332.758 137.463C332.758 137.463 331.651 132.636 327.438 138.387V138.387ZM81.281 205.047C62.0541 212.815 43.1581 211.708 32.7582 209.952C32.8471 214.087 32.5546 215.848 31.9443 216.575C31.2422 217.533 25.0941 221.779 21.0535 216.878C19.2665 214.519 18.082 210.09 17.2674 206.02C-6.54801 197.739 -18.5183 183.47 -18.903 182.945C-19.5111 182.44 -25.1857 177.517 -20.5901 170.387C-16.2699 163.954 -0.732785 156.461 13.4577 152.783C12.922 140.514 13.4165 130.952 14.7743 126.632C16.3925 121.448 19.4144 125.656 22.0576 128.779C24.1796 131.108 26.3118 141.722 27.1893 150.266C36.529 148.982 42.2834 149.138 52.9027 150.203C66.8459 151.306 76.6286 157.484 76.6089 165.436C76.6352 173.272 69.7773 177.133 67.0056 177.605C64.234 178.077 59.5836 176.422 59.5836 176.422C56.3278 175.258 59.0558 173.67 62.5455 171.79C66.3913 169.486 65.324 167.622 65.324 167.622C63.4745 163.309 45.4011 161.96 27.7028 163.544C28.573 173.264 30.4059 189.335 31.5255 198.697C44.1287 199.92 53.3518 198.59 53.3518 198.59C53.3518 198.59 98.4601 193.264 97.1733 164.434C95.9932 135.54 46.9083 112.165 11.7968 106.575C-23.2837 100.703 -42.1459 108.774 -43.7462 109.757C-45.509 110.81 -43.8043 110.994 -43.8043 110.994C-43.8043 110.994 -41.937 111.106 -38.4877 111.917C-35.0384 112.728 -37.5691 114.634 -37.5691 114.634C-43.2523 117.159 -49.8889 116.577 -51.4117 114.026C-52.9295 111.531 -51.0218 108.953 -48.8227 105.229C-46.801 101.408 -44.1112 101.28 -44.1112 101.28C-2.99782 82.7624 51.1749 104.505 51.1749 104.505C101.814 124.493 112.638 152.357 112.739 163.545C112.937 174.556 110.35 193.431 81.286 205.103L81.281 205.047ZM-15.5114 173.684C-20.1139 176.335 -16.4458 179.59 -16.4458 179.59C-6.54099 188.389 5.05547 193.453 16.0014 196.28C15.7379 179.508 15.0941 173.575 14.3432 165.188C-1.97146 167.769 -11.224 171.284 -15.5114 173.684Z" fill="#637A7F"/>
</g>
<defs>
<clipPath id="clip0">
<rect width="320" height="320" fill="white"/>
</clipPath>
</defs>
</svg>
