<svg width="32" height="36" viewBox="0 0 32 36" fill="none" xmlns="http://www.w3.org/2000/svg">
<path d="M13.8258 3.09578C13.7047 2.64372 13.2638 2.38917 12.8372 2.4662C12.8372 2.4662 12.7329 2.49415 12.6285 2.52211C12.0722 2.67119 10.5955 3.14138 8.99664 4.12886C8.19253 4.60521 7.35615 5.23929 6.63589 6.0286C5.88087 6.82723 5.24197 7.78109 4.8074 8.94109C4.74035 9.10813 4.75216 9.29132 4.78943 9.43041C4.85465 9.67383 5.02419 9.88929 5.2701 9.97248C5.43715 10.0395 5.62034 10.0277 5.75943 9.99044C6.00284 9.92522 6.2183 9.75568 6.30149 9.50977C6.65288 8.59567 7.18995 7.81818 7.78974 7.13568C8.71614 6.14206 9.86549 5.42412 10.8528 4.93596C11.8401 4.44779 12.7001 4.18008 13.0478 4.08691C13.1174 4.06827 13.1521 4.05895 13.1869 4.04964L13.2565 4.031C13.6831 3.95396 13.9376 3.51306 13.8258 3.09578Z" fill="#AFBDC0"/>
<path d="M3.03124 8.70891C3.19829 8.77596 3.39079 8.79892 3.56465 8.75233C3.80807 8.68711 4.02353 8.51756 4.10672 8.27165C5.01996 5.9771 6.69706 4.4469 8.35619 3.40602C9.98055 2.37445 11.5963 1.86698 12.257 1.68995C12.3613 1.662 12.4308 1.64336 12.5004 1.62473L12.6047 1.59677C13.022 1.48497 13.2858 1.07883 13.2088 0.652233L13.1995 0.617459C13.0877 0.200179 12.6816 -0.0636966 12.255 0.01334C12.255 0.01334 12.1159 0.0506099 11.8377 0.12515C11.0727 0.330134 9.31786 0.874873 7.46872 2.04121C5.61958 3.20754 3.67611 4.99547 2.56853 7.67752C2.50148 7.84457 2.47852 8.03707 2.52511 8.21094C2.60647 8.37549 2.77601 8.59095 3.03124 8.70891Z" fill="#AFBDC0"/>
<path d="M28.8902 13.5571C28.7318 12.966 28.5945 12.5928 28.5505 12.5673C28.3784 12.2034 27.9909 12.0091 27.6084 12.1116C27.5736 12.1209 27.5389 12.1302 27.5041 12.1396C27.1402 12.3116 26.9459 12.6991 27.0484 13.0816C27.0577 13.1164 27.0577 13.1164 27.067 13.1511L27.0763 13.1859C27.0763 13.1859 27.0763 13.1859 27.0856 13.2207C27.0856 13.2207 27.195 13.4896 27.3254 13.9764C27.5211 14.7066 27.7242 15.8821 27.661 17.3153C27.563 18.7578 27.1987 20.458 26.1804 22.2217C26.0786 22.398 26.0302 22.6346 26.0861 22.8433C26.142 23.0519 26.2675 23.2419 26.4786 23.3344C26.655 23.4362 26.8915 23.4847 27.1002 23.4288C27.3088 23.3729 27.4988 23.2474 27.5913 23.0363C28.7623 21.0081 29.2099 19.0619 29.2867 17.4015C29.3729 15.7758 29.1231 14.4264 28.8902 13.5571Z" fill="#AFBDC0"/>
<path d="M24.9161 17.6409C24.7391 16.9802 24.3186 16.3848 23.7014 16.0284L23.4809 15.9011C23.1723 15.7229 22.8475 15.6236 22.4973 15.5684L22.7773 15.0834C23.1846 14.3779 23.2671 13.5731 23.1062 12.8336C23.1062 12.8336 23.1062 12.8336 23.0969 12.7988C22.9012 12.0686 22.418 11.3781 21.6778 10.9801C21.3692 10.8019 21.0444 10.7026 20.6942 10.6474C20.9556 10.0928 21.0058 9.44575 20.8567 8.88938L20.8381 8.81983C20.6704 8.19391 20.2499 7.59844 19.6327 7.24206L19.0595 6.91114C18.4422 6.55475 17.7163 6.48837 17.0556 6.66541C16.4992 6.81449 16.0242 7.12811 15.6653 7.59697C15.4424 7.32128 15.194 7.08969 14.8853 6.91149C14.2681 6.55511 13.5421 6.48873 12.8814 6.66576C12.2208 6.8428 11.6253 7.26324 11.2689 7.88051L6.72845 15.6939C6.74641 15.2046 6.73892 14.7593 6.61779 14.3073C6.4594 13.7161 6.12713 13.1716 5.63964 12.7432C5.15214 12.3147 4.52805 12.072 3.82759 11.9615L3.79282 11.9708L3.71395 11.9547C3.56554 11.9572 3.41713 11.9597 3.24326 12.0063C2.75644 12.1367 2.34415 12.5454 2.22186 13.0626C2.18027 13.1856 1.68863 15.1063 1.16971 17.4815C0.902174 18.7086 0.627822 20.0493 0.413699 21.3365C0.199576 22.6238 0.0363644 23.8229 0.00974989 24.8364C-0.00638835 24.9152 -0.0491411 26.0075 0.351511 27.5028C0.603083 28.4416 1.05897 29.5867 1.83714 30.6826C2.6153 31.7785 3.69961 32.9043 5.23347 33.7604C6.55619 34.5241 7.93415 34.9376 9.23757 35.0728C10.541 35.2081 11.7699 35.0651 12.8826 34.767C14.0649 34.4502 15.1218 33.9434 15.942 33.3882C16.7623 32.833 17.4155 32.2107 17.7718 31.5934L24.6449 19.6889C24.9827 19.0021 25.0584 18.3109 24.9161 17.6409ZM9.3492 33.403C8.27306 33.2814 7.15032 32.9859 6.00396 32.3241C4.68124 31.5604 3.76648 30.6501 3.10445 29.7094C2.45173 28.8035 2.08652 27.8578 1.8629 27.0232C1.69519 26.3973 1.61565 25.8223 1.59203 25.4559C1.58021 25.2728 1.57772 25.1243 1.58454 25.0107C1.57522 24.9759 1.60068 24.9318 1.59136 24.8971L1.58204 24.8623C1.61115 23.9973 1.74891 22.8423 1.97235 21.5898C2.29012 19.7157 2.71904 17.7 3.07658 16.1134C3.27273 15.3154 3.43661 14.6752 3.53344 14.202C3.58186 13.9654 3.64891 13.7984 3.68119 13.6406C3.67187 13.6059 3.70664 13.5965 3.69732 13.5618C4.05687 13.6518 4.3121 13.7697 4.5071 13.9411C4.74619 14.1379 4.88096 14.3627 4.96481 14.6757C5.06731 15.0582 5.08411 15.5382 4.94569 16.1343L4.18036 19.9546C4.13877 20.0775 4.17604 20.2166 4.20399 20.3209C4.26921 20.5644 4.43876 20.7798 4.72876 20.8885C4.8958 20.9555 5.07899 20.9437 5.21808 20.9064C5.42672 20.8505 5.61673 20.7251 5.70923 20.5139L12.5823 8.60942C12.7444 8.37964 12.9251 8.21942 13.2032 8.14488C13.4467 8.07966 13.718 8.11875 13.9732 8.23672C14.1937 8.36399 14.3632 8.57946 14.4378 8.85764C14.503 9.10106 14.4639 9.37242 14.3459 9.62765L9.24795 18.5595C9.14613 18.7358 9.09771 18.9724 9.15362 19.181C9.20952 19.3897 9.33498 19.5797 9.54611 19.6722C9.72248 19.774 9.95907 19.8224 10.1677 19.7665C10.3763 19.7106 10.5664 19.5852 10.6589 19.374L16.8446 8.65997C17.0067 8.4302 17.1874 8.26997 17.4656 8.19543C17.709 8.13021 17.9803 8.16931 18.2356 8.28727L18.8087 8.61819C19.0385 8.78025 19.1987 8.96093 19.2733 9.23912C19.3385 9.48253 19.2994 9.7539 19.1814 10.0091L18.0868 11.905L15.8374 15.7503L12.9864 20.6884C12.8845 20.8648 12.8361 21.1014 12.892 21.31C12.9479 21.5187 13.0734 21.7087 13.2845 21.8012C13.4609 21.903 13.6975 21.9514 13.9061 21.8955C14.1148 21.8396 14.3048 21.7141 14.3973 21.503L19.463 12.7289C19.625 12.4992 19.8057 12.3389 20.0839 12.2644C20.3273 12.1992 20.5987 12.2383 20.8539 12.3562C21.2066 12.5599 21.3948 12.8449 21.488 13.1926C21.5812 13.5404 21.5352 13.9254 21.3571 14.234L19.8645 16.8701L16.1386 23.2726L15.7313 23.9781C15.6295 24.1544 15.5811 24.391 15.637 24.5997C15.6929 24.8083 15.8183 24.9983 16.0295 25.0908C16.2058 25.1926 16.4424 25.2411 16.6511 25.1852C16.8597 25.1292 17.0497 25.0038 17.1422 24.7927L21.2406 17.694C21.4027 17.4643 21.5833 17.304 21.8615 17.2295C22.1049 17.1643 22.3763 17.2034 22.6315 17.3213L22.852 17.4486C23.0818 17.6107 23.242 17.7914 23.3165 18.0695C23.3818 18.313 23.3427 18.5843 23.2247 18.8395L16.3516 30.7441C16.2752 30.8763 16.1132 31.1061 15.8723 31.3197C15.6314 31.5334 15.365 31.7911 15.0104 31.9979C14.3106 32.4463 13.4184 32.8718 12.4099 33.142C11.471 33.3935 10.4253 33.5246 9.3492 33.403Z" fill="#AFBDC0"/>
<path d="M31.1288 11.6157C30.9568 11.2519 30.5693 11.0575 30.1868 11.16C30.152 11.1693 30.1172 11.1787 30.0825 11.188C29.7186 11.36 29.5243 11.7475 29.6268 12.13C29.6268 12.13 29.6361 12.1648 29.6454 12.1996L29.664 12.2691C29.664 12.2691 29.7733 12.538 29.9038 13.0248C30.1181 13.8246 30.3771 15.2087 30.2239 17.0015C30.0707 18.7942 29.4959 20.9608 28.1306 23.3765C28.0287 23.5528 27.9803 23.7894 28.0362 23.9981C28.0921 24.2067 28.2176 24.3967 28.4287 24.4892C28.6051 24.591 28.8417 24.6395 29.0503 24.5836C29.259 24.5277 29.449 24.4022 29.5415 24.1911C31.0434 21.5897 31.6573 19.1517 31.8242 17.1317C31.991 15.1117 31.6854 13.5537 31.4338 12.6148C31.2754 12.0237 31.1475 11.6853 31.1288 11.6157Z" fill="#AFBDC0"/>
</svg>
