<svg width="320" height="320" viewBox="0 0 320 320" fill="none" xmlns="http://www.w3.org/2000/svg">
<g clip-path="url(#clip0)">
<path d="M-26.5308 110.864L-25.3308 120.629L43.5394 112.166L42.3394 102.401L-26.5308 110.864ZM52.1045 101.201L53.3045 110.966L151.984 98.8392C151.984 98.8392 140.505 90.3372 127.656 91.9162L52.1045 101.201ZM169.801 86.7372L171.001 96.5023L230.62 89.1759L225.822 79.8529L169.801 86.7372ZM272.078 74.1686L269.68 84.3759L328.785 77.1126L327.585 67.3475L272.078 74.1686ZM-24.1939 129.88L-22.9939 139.645L45.8762 131.182L44.6762 121.417L-24.1939 129.88ZM54.4414 120.217L55.6414 129.982L165.628 116.466C165.628 116.466 163.653 108.883 160.83 107.143L54.4414 120.217ZM172.138 105.753L173.338 115.519L239.638 107.371L235.354 97.985L172.138 105.753ZM267.219 94.0691L265.336 104.213L331.122 96.1289L329.922 86.3638L267.219 94.0691ZM-1.87591 145.919L-0.675901 155.685L29.1337 152.021L27.9337 142.256L-1.87591 145.919ZM76.7595 136.256L77.9595 146.021L107.769 142.358L106.569 132.593L76.7595 136.256ZM135.865 128.993L137.065 138.758L166.874 135.095C166.874 135.095 168.298 129.703 167.73 125.077L135.865 128.993ZM194.456 121.793L195.656 131.558L248.593 125.053L243.795 115.73L194.456 121.793ZM263.326 113.33L260.928 123.537L314.38 116.968L313.18 107.203L263.326 113.33ZM0.460968 164.936L1.66098 174.701L31.4705 171.038L30.2705 161.273L0.460968 164.936ZM79.0964 155.273L80.2964 165.038L156.876 155.627C156.876 155.627 162.412 149.73 163.899 144.851L79.0964 155.273ZM196.792 140.809L197.992 150.574L227.802 146.911L227.107 141.258L229.858 146.659L284.851 139.901L286.212 133.994L286.907 139.648L316.716 135.985L315.516 126.22L259.495 133.104L257.422 141.706L253.328 133.862L196.792 140.809ZM2.79783 183.952L3.99784 193.717L33.8074 190.054L32.6074 180.289L2.79783 183.952ZM81.4333 174.289L82.6333 184.054L167.436 173.633C164.812 169.26 158.013 164.878 158.013 164.878L81.4333 174.289ZM199.129 159.826L200.329 169.591L230.139 165.928L228.939 156.162L199.129 159.826ZM234.592 155.468L239.39 164.791L280.507 159.738L282.904 149.531L234.592 155.468ZM287.53 148.962L288.73 158.727L318.539 155.064L317.339 145.299L287.53 148.962ZM5.13471 202.969L6.33472 212.734L36.1443 209.071L34.9443 199.305L5.13471 202.969ZM83.7701 193.305L84.9702 203.071L114.78 199.407L113.58 189.642L83.7701 193.305ZM142.875 186.042L144.075 195.807L175.94 191.891C175.372 187.266 172.685 182.379 172.685 182.379L142.875 186.042ZM201.466 178.842L202.666 188.607L232.476 184.944L231.276 175.179L201.466 178.842ZM243.61 173.663L248.408 182.986L276.162 179.575L278.56 169.368L243.61 173.663ZM289.867 167.979L291.067 177.744L320.876 174.081L319.676 164.316L289.867 167.979ZM-12.1219 223.871L-10.9218 233.636L57.9483 225.173L56.7483 215.408L-12.1219 223.871ZM65.9994 214.271L67.1994 224.036L173.588 210.962C175.392 208.654 175.986 200.755 175.986 200.755L65.9994 214.271ZM184.209 199.745L185.409 209.51L234.749 203.446L233.549 193.681L184.209 199.745ZM252.566 191.344L257.363 200.667L271.24 198.962L273.638 188.755L252.566 191.344ZM292.14 186.481L293.34 196.246L343.194 190.12L341.994 180.355L292.14 186.481ZM-9.785 242.887L-8.58499 252.653L60.2852 244.189L59.0851 234.424L-9.785 242.887ZM68.3363 233.287L69.5363 243.052L144.574 233.831C157.937 232.189 166.502 221.224 166.502 221.224L68.3363 233.287ZM186.546 218.761L187.746 228.526L237.086 222.463L235.886 212.698L186.546 218.761ZM261.584 209.54L266.382 218.863L266.896 218.8L269.293 208.592L261.584 209.54ZM294.477 205.498L295.677 215.263L345.531 209.136L344.331 199.371L294.477 205.498Z" fill="white"/>
</g>
<defs>
<clipPath id="clip0">
<rect width="320" height="320" fill="white"/>
</clipPath>
</defs>
</svg>
