<svg width="167" height="73" viewBox="0 0 167 73" fill="none" xmlns="http://www.w3.org/2000/svg">
<rect x="3.5" y="3.5" width="163" height="69" fill="#194148" stroke="#637A7F"/>
<rect x="0.5" y="0.5" width="163" height="69" fill="#194148" stroke="#637A7F"/>
<path fill-rule="evenodd" clip-rule="evenodd" d="M102.878 51.2223H148.228L153.398 21.1023H107.938L102.878 51.2223ZM123.258 29.5021C123.258 31.5421 121.258 33.2721 114.448 38.2821V41.0821H126.978V37.9621H120.038C124.498 34.8121 126.848 32.3421 126.848 29.5021C126.848 26.1921 124.028 24.1921 120.488 24.1921C118.168 24.1921 115.698 25.0421 114.078 26.9121L116.098 29.2521C117.218 28.0821 118.668 27.3321 120.538 27.3321C121.938 27.3321 123.258 28.0521 123.258 29.5021ZM130.388 36.4821C131.538 37.6521 133.078 38.2821 134.828 38.2821C136.798 38.2821 137.918 37.1621 137.918 35.7921C137.918 34.2721 136.818 33.2521 134.928 33.2521C133.558 33.2521 132.438 33.6721 131.438 34.6221L128.968 33.9521V24.4521H140.398V27.4921H132.438V31.6621C133.308 30.8921 134.658 30.2621 136.178 30.2621C138.998 30.2621 141.518 32.2821 141.518 35.6521C141.518 39.1721 138.878 41.3921 134.858 41.3921C131.968 41.3921 129.868 40.4421 128.448 38.9021L130.388 36.4821ZM114.468 43.5722L116.268 46.2122V48.1422H116.838V46.2122L118.628 43.5722H117.968L116.548 45.6922L115.128 43.5722H114.468ZM120.838 43.5722H123.828V44.0822H121.408V45.5522H123.788V46.0622H121.408V47.6322H123.828V48.1422H120.838V43.5722ZM126.918 47.1222H129.228L129.648 48.1322H130.278L128.438 43.5622H127.728L125.888 48.1322H126.518L126.918 47.1222ZM129.058 46.6222H127.078L128.068 44.0822L129.058 46.6222ZM133.958 46.3222H133.048V48.1322H132.478V43.5622H134.318C135.158 43.5622 135.748 44.0922 135.748 44.9422C135.748 45.7622 135.188 46.2122 134.568 46.2722L135.798 48.1322H135.128L133.958 46.3222ZM134.238 44.0822H133.038V45.8322H134.238C134.778 45.8322 135.148 45.4722 135.148 44.9522C135.148 44.4322 134.778 44.0822 134.238 44.0822ZM139.758 47.7122C139.108 47.7122 138.618 47.4022 138.318 47.0622L137.998 47.4922C138.368 47.9222 138.958 48.2222 139.748 48.2222C140.978 48.2222 141.428 47.5422 141.428 46.8822C141.428 45.9222 140.578 45.6922 139.828 45.4922C139.248 45.3422 138.718 45.2022 138.718 44.7422C138.718 44.3022 139.108 44.0122 139.658 44.0122C140.158 44.0122 140.638 44.1822 140.978 44.5622L141.318 44.1422C140.938 43.7322 140.398 43.5022 139.698 43.5022C138.798 43.5022 138.128 44.0222 138.128 44.7722C138.128 45.6588 138.941 45.8706 139.669 46.06L139.678 46.0622C140.288 46.2222 140.838 46.3722 140.838 46.9222C140.838 47.2722 140.568 47.7122 139.758 47.7122Z" fill="white"/>
<path d="M49.4276 21.1123L44.4476 51.2123H37.5876L42.5676 21.1123H49.4276V21.1123Z" fill="white"/>
<path d="M75.7376 32.4522L68.8976 32.7822C68.9376 32.3222 68.9576 31.9722 68.9576 31.7222C68.9576 30.2022 68.5776 28.9122 67.8276 27.8622C67.0776 26.8122 65.9376 26.2822 64.4076 26.2822C61.9076 26.2822 60.1276 27.8022 59.0476 30.8322C57.9676 33.8622 57.4276 36.8422 57.4276 39.7522C57.4276 41.9122 57.8876 43.4922 58.7976 44.4822C59.7176 45.4722 60.8876 45.9722 62.3276 45.9722C65.2476 45.9722 67.2476 44.1222 68.3376 40.4122L74.4776 41.4922C72.2076 48.3522 67.9776 51.7722 61.7976 51.7722C57.9676 51.7722 55.0476 50.5022 53.0276 47.9522C51.0076 45.4022 49.9976 42.3322 49.9976 38.7222C49.9976 33.9122 51.3176 29.6922 53.9476 26.0322C56.5776 22.3822 60.0776 20.5522 64.4376 20.5522C67.5976 20.5522 70.2376 21.5222 72.3576 23.4522C74.4876 25.3922 75.6076 28.3922 75.7376 32.4522Z" fill="white"/>
<path d="M100.798 21.1123L99.8576 26.8323H86.4876L85.3876 33.5323H96.7476L95.8076 39.2523H84.6676L82.7076 51.2023H75.5876L80.5676 21.1023H100.798V21.1123Z" fill="white"/>
<path d="M14.0076 50.0223C14.0676 50.0623 14.1376 50.1123 14.1976 50.1523C16.5576 46.2823 19.5276 41.9923 23.2176 37.6223C26.8776 33.2823 31.3076 28.7923 36.7476 24.3823C36.7476 24.3823 33.0576 26.5923 28.1276 30.5323C23.2876 34.4023 17.1976 39.9923 11.7876 47.2323C12.2876 48.3723 13.0276 49.3323 14.0076 50.0223Z" fill="white"/>
<path d="M11.2376 40.2323C10.9576 41.9523 10.9176 43.5823 11.1576 45.0323C14.0876 41.7023 17.6576 38.0423 21.8276 34.5123C23.9376 32.7323 26.2076 30.9723 28.6676 29.2823C31.1576 27.5723 33.8476 25.9223 36.7476 24.3823C36.7476 24.3823 33.2776 25.4623 28.3076 28.0423C25.8976 29.2923 23.1276 30.9023 20.2176 32.9223C17.3476 34.9123 14.3076 37.3223 11.2376 40.2323Z" fill="white"/>
<path d="M34.3676 18.2323C32.9476 17.8723 31.3676 17.9423 29.7276 18.3623C28.1276 18.7723 26.4476 19.5223 24.7976 20.5423C21.5476 22.5523 18.2976 25.7023 15.6976 29.5923C15.2576 30.2423 14.8576 30.9023 14.4676 31.5723C13.3676 33.4923 12.5276 35.4323 11.9476 37.3023C15.0376 34.8123 18.6876 32.2023 22.7376 29.9323C24.8076 28.7723 27.0076 27.6923 29.3076 26.7623C31.6576 25.8023 34.1476 24.9923 36.7576 24.3823C36.7576 24.3823 34.3676 24.2523 30.5276 24.9923C28.6776 25.3523 26.5076 25.9123 24.1076 26.7823C21.7676 27.6323 19.2076 28.7823 16.4876 30.3423C16.5576 30.2423 16.6176 30.1323 16.6876 30.0323C18.9876 26.5723 21.8876 23.7723 24.7676 22.0023C26.2376 21.1023 27.7176 20.4523 29.1276 20.1023C30.5676 19.7523 31.9576 19.7123 33.1976 20.0523C35.7776 20.7623 37.2676 22.9723 37.5076 26.0823C37.6376 27.6923 37.4276 29.5323 36.8676 31.5023C36.2976 33.5123 35.3676 35.6423 34.0576 37.7723C30.7276 43.2223 25.9776 47.1323 21.6976 48.4623C23.1676 44.8723 25.0676 41.0023 27.5376 36.9323C29.9676 32.9523 32.9676 28.7523 36.7276 24.3923C36.7276 24.3923 33.4376 27.3223 29.2876 32.0023C27.2076 34.3523 24.8976 37.1623 22.6376 40.3223C20.3476 43.5123 18.0876 47.1023 16.1276 51.0023C17.2076 51.2723 18.3676 51.2923 19.4676 51.1623C20.5376 51.0423 21.6276 50.6723 22.6276 50.2723C23.5376 49.9023 24.4076 49.4623 25.2476 48.9723C26.1576 48.4323 27.0276 47.8323 27.8676 47.1823C28.7576 46.4923 29.6076 45.7323 30.4176 44.9423C31.2676 44.1023 32.0676 43.2223 32.8176 42.2923C33.6076 41.3223 34.3376 40.3123 35.0076 39.2723C35.1876 39.0023 35.3576 38.7223 35.5276 38.4423C37.0276 35.9723 38.0876 33.5123 38.7276 31.2023C39.3476 28.9423 39.5676 26.8323 39.3976 25.0023C39.2276 23.2223 38.6976 21.7023 37.8276 20.5423C36.9976 19.3923 35.8376 18.6023 34.3676 18.2323Z" fill="white"/>
</svg>
