<svg width="20" height="20" viewBox="0 0 20 20" fill="none" xmlns="http://www.w3.org/2000/svg">
<path d="M17.875 -0.000488281H1.33203C0.601562 -0.000488281 0 0.644043 0 1.41748V17.8745C0 18.6479 0.601562 19.2495 1.33203 19.2495H17.875C18.6055 19.2495 19.25 18.6479 19.25 17.8745V1.41748C19.25 0.644043 18.6055 -0.000488281 17.875 -0.000488281ZM5.80078 16.4995H2.96484V7.34717H5.80078V16.4995ZM4.38281 6.05811C3.4375 6.05811 2.70703 5.32764 2.70703 4.42529C2.70703 3.52295 3.4375 2.74951 4.38281 2.74951C5.28516 2.74951 6.01562 3.52295 6.01562 4.42529C6.01562 5.32764 5.28516 6.05811 4.38281 6.05811ZM16.5 16.4995H13.6211V12.0308C13.6211 10.9995 13.6211 9.62451 12.1602 9.62451C10.6562 9.62451 10.4414 10.7847 10.4414 11.9878V16.4995H7.60547V7.34717H10.3125V8.59326H10.3555C10.7422 7.86279 11.6875 7.08936 13.0625 7.08936C15.9414 7.08936 16.5 9.02295 16.5 11.4722V16.4995Z" fill="#04E3BB"/>
</svg>
