<svg width="20" height="20" viewBox="0 0 20 20" fill="none" xmlns="http://www.w3.org/2000/svg">
<path d="M0 -0.000488281V19.2495H19.25V-0.000488281H0ZM15.9844 4.59717L14.9531 5.58545C14.8672 5.62842 14.8242 5.75732 14.8242 5.84326V13.1479C14.8242 13.2339 14.8672 13.3628 14.9531 13.4058L15.9414 14.394V14.6089H10.8711V14.394L11.9453 13.4058C12.0312 13.2769 12.0312 13.2769 12.0312 13.105V7.21826L9.10938 14.6089H8.72266L5.37109 7.21826V12.1597C5.32812 12.3745 5.41406 12.5894 5.54297 12.7183L6.91797 14.394V14.6089H3.05078V14.394L4.38281 12.7183C4.55469 12.5894 4.59766 12.3745 4.55469 12.1597V6.44482C4.59766 6.31592 4.51172 6.14404 4.42578 6.01514L3.22266 4.59717V4.33936H6.96094L9.83984 10.6987L12.418 4.38232H15.9844V4.59717Z" fill="#04E3BB"/>
</svg>
