<svg width="19" height="20" viewBox="0 0 19 20" fill="none" xmlns="http://www.w3.org/2000/svg">
<path d="M18.6055 15.2534H17.3594C17.2734 15.855 16.8867 16.5854 15.9414 16.5854C15.0391 16.5854 14.3945 15.9839 13.793 15.0386C15.6836 13.5776 17.0156 11.3003 17.0156 8.46436C17.0156 3.43701 12.8477 -0.000488281 8.50781 -0.000488281C4.21094 -0.000488281 0 3.43701 0 8.46436C0 14.2222 5.62891 18.0034 10.6992 16.5854C11.5586 18.0464 12.6758 19.2495 14.7812 19.2495C18.3047 19.2495 18.6914 16.0269 18.6055 15.2534ZM12.4609 12.8042C11.6016 11.5151 10.5703 10.5269 8.50781 10.5269C7.21875 10.5269 6.1875 10.9565 5.54297 11.5151L6.05859 12.5894C6.31641 12.4604 6.61719 12.4175 6.91797 12.4175C8.46484 12.4175 9.23828 13.7065 9.88281 15.0386C9.45312 15.1675 9.02344 15.2104 8.50781 15.2104C5.28516 15.2104 3.86719 12.9331 3.86719 8.46436C3.86719 3.99561 5.28516 1.67529 8.50781 1.67529C11.7734 1.67529 13.1484 3.99561 13.1484 8.46436C13.1484 10.269 12.9336 11.73 12.4609 12.8042Z" fill="#04E3BB"/>
</svg>
