<svg width="320" height="320" viewBox="0 0 320 320" fill="none" xmlns="http://www.w3.org/2000/svg">
<g clip-path="url(#clip0)">
<path d="M-27 110.864L-25.8 120.629L43.0701 112.166L41.8701 102.401L-27 110.864ZM51.6353 101.201L52.8353 110.966L151.515 98.8392C151.515 98.8392 140.036 90.3372 127.187 91.9162L51.6353 101.201ZM169.331 86.7372L170.531 96.5023L230.15 89.1759L225.353 79.8529L169.331 86.7372ZM271.609 74.1686L269.211 84.3759L328.316 77.1126L327.116 67.3475L271.609 74.1686ZM-24.6631 129.88L-23.4631 139.645L45.407 131.182L44.207 121.417L-24.6631 129.88ZM53.9721 120.217L55.1722 129.982L165.159 116.466C165.159 116.466 163.184 108.883 160.361 107.143L53.9721 120.217ZM171.668 105.753L172.868 115.519L239.169 107.371L234.885 97.985L171.668 105.753ZM266.75 94.0691L264.866 104.213L330.653 96.1289L329.453 86.3638L266.75 94.0691ZM-2.34515 145.919L-1.14514 155.685L28.6644 152.021L27.4644 142.256L-2.34515 145.919ZM76.2903 136.256L77.4903 146.021L107.3 142.358L106.1 132.593L76.2903 136.256ZM135.395 128.993L136.595 138.758L166.405 135.095C166.405 135.095 167.829 129.703 167.26 125.077L135.395 128.993ZM193.986 121.793L195.186 131.558L248.124 125.053L243.326 115.73L193.986 121.793ZM262.856 113.33L260.459 123.537L313.91 116.968L312.71 107.203L262.856 113.33ZM-0.00827074 164.936L1.19174 174.701L31.0013 171.038L29.8013 161.273L-0.00827074 164.936ZM78.6272 155.273L79.8272 165.038L156.407 155.627C156.407 155.627 161.943 149.73 163.43 144.851L78.6272 155.273ZM196.323 140.809L197.523 150.574L227.333 146.911L226.638 141.258L229.388 146.659L284.382 139.901L285.743 133.994L286.438 139.648L316.247 135.985L315.047 126.22L259.026 133.104L256.953 141.706L252.858 133.862L196.323 140.809ZM2.32859 183.952L3.5286 193.717L33.3382 190.054L32.1382 180.289L2.32859 183.952ZM80.964 174.289L82.164 184.054L166.967 173.633C164.343 169.26 157.544 164.878 157.544 164.878L80.964 174.289ZM198.66 159.826L199.86 169.591L229.669 165.928L228.469 156.162L198.66 159.826ZM234.123 155.468L238.921 164.791L280.037 159.738L282.435 149.531L234.123 155.468ZM287.06 148.962L288.26 158.727L318.07 155.064L316.87 145.299L287.06 148.962ZM4.66547 202.969L5.86548 212.734L35.6751 209.071L34.475 199.305L4.66547 202.969ZM83.3009 193.305L84.5009 203.071L114.31 199.407L113.11 189.642L83.3009 193.305ZM142.406 186.042L143.606 195.807L175.471 191.891C174.903 187.266 172.215 182.379 172.215 182.379L142.406 186.042ZM200.997 178.842L202.197 188.607L232.006 184.944L230.806 175.179L200.997 178.842ZM243.141 173.663L247.939 182.986L275.693 179.575L278.09 169.368L243.141 173.663ZM289.397 167.979L290.597 177.744L320.407 174.081L319.207 164.316L289.397 167.979ZM-12.5911 223.871L-11.3911 233.636L57.4791 225.173L56.279 215.408L-12.5911 223.871ZM65.5302 214.271L66.7302 224.036L173.119 210.962C174.922 208.654 175.517 200.755 175.517 200.755L65.5302 214.271ZM183.74 199.745L184.94 209.51L234.28 203.446L233.08 193.681L183.74 199.745ZM252.096 191.344L256.894 200.667L270.771 198.962L273.169 188.755L252.096 191.344ZM291.671 186.481L292.871 196.246L342.725 190.12L341.525 180.355L291.671 186.481ZM-10.2542 242.887L-9.05422 252.653L59.8159 244.189L58.6159 234.424L-10.2542 242.887ZM67.8671 233.287L69.0671 243.052L144.105 233.831C157.468 232.189 166.033 221.224 166.033 221.224L67.8671 233.287ZM186.077 218.761L187.277 228.526L236.617 222.463L235.417 212.698L186.077 218.761ZM261.115 209.54L265.912 218.863L266.426 218.8L268.824 208.592L261.115 209.54ZM294.008 205.498L295.208 215.263L345.062 209.136L343.862 199.371L294.008 205.498Z" fill="#637A7F"/>
<path d="M-20.2886 272.839C-20.1697 273.886 -19.887 274.728 -19.4369 275.394C-18.9868 276.061 -18.4276 276.59 -17.7556 277.013C-17.1144 277.439 -16.4255 277.735 -15.6513 277.96C-14.9079 278.187 -14.168 278.384 -13.4385 278.488C-12.9247 278.617 -12.4144 278.715 -11.9349 278.817C-11.4519 278.949 -11.0305 279.088 -10.6363 279.262C-10.2695 279.47 -9.96085 279.716 -9.71026 279.999C-9.48697 280.317 -9.3183 280.704 -9.26234 281.196C-9.16791 282.028 -9.37168 282.706 -9.87715 283.201C-10.3826 283.695 -11.1282 283.998 -12.1139 284.11C-14.2392 284.351 -15.6553 283.42 -16.3965 281.289L-19.3396 283.121C-19.012 284.082 -18.5788 284.875 -18.009 285.497C-17.4392 286.118 -16.8253 286.579 -16.1295 286.937C-15.4645 287.298 -14.7246 287.495 -13.9644 287.596C-13.2041 287.697 -12.4544 287.705 -11.7151 287.621C-10.8219 287.52 -9.97341 287.299 -9.20054 286.961C-8.42766 286.624 -7.76468 286.143 -7.2081 285.549C-6.64802 284.987 -6.25944 284.287 -5.97725 283.475C-5.72237 282.698 -5.63898 281.783 -5.7544 280.767C-5.86282 279.812 -6.11127 278.998 -6.49623 278.355C-6.8812 277.712 -7.37538 277.207 -7.95498 276.774C-8.56537 276.344 -9.22688 276.013 -9.97031 275.786C-10.7137 275.558 -11.488 275.334 -12.2895 275.144C-12.9265 275.029 -13.5019 274.908 -14.0158 274.779C-14.5296 274.65 -14.9818 274.514 -15.3794 274.31C-15.7735 274.136 -16.113 273.894 -16.3328 273.607C-16.5834 273.323 -16.7177 272.964 -16.7737 272.471C-16.8507 271.793 -16.6742 271.149 -16.1757 270.594C-15.708 270.041 -14.9352 269.704 -13.8879 269.585C-12.9638 269.48 -12.135 269.636 -11.4322 270.055C-10.7294 270.474 -10.1799 271.192 -9.74599 272.266L-6.66216 270.574C-7.28226 268.96 -8.26431 267.73 -9.60132 266.946C-10.9383 266.161 -12.5001 265.871 -14.225 266.067C-15.1491 266.172 -16.0248 266.427 -16.7977 266.764C-17.5979 267.136 -18.2609 267.617 -18.821 268.18C-19.3775 268.773 -19.7969 269.476 -20.0518 270.254C-20.3375 271.035 -20.3936 271.915 -20.2886 272.839ZM9.1549 272.272C8.61874 271.397 7.92226 270.759 7.06195 270.326C6.17083 269.897 5.12289 269.735 3.8908 269.875C2.72033 270.008 1.76264 270.366 1.01425 270.919C0.269355 271.503 -0.276736 272.189 -0.654826 272.981L-0.90315 270.794L-4.13737 271.161L-2.38861 286.562L0.938013 286.184L0.1126 278.915C0.0286596 278.176 0.00982098 277.46 0.0595812 276.8C0.109342 276.139 0.262001 275.56 0.514062 275.032C0.766122 274.504 1.12458 274.089 1.58593 273.756C2.04729 273.423 2.67665 273.195 3.4467 273.108C4.49397 272.989 5.33329 273.237 5.95768 273.79C6.58557 274.374 6.96771 275.266 7.10761 276.498L8.1149 285.369L11.4415 284.992L10.6161 277.722C10.5322 276.983 10.5133 276.268 10.5596 275.576C10.6093 274.915 10.7928 274.333 11.0449 273.805C11.3004 273.308 11.6589 272.893 12.1202 272.56C12.5816 272.227 13.211 271.999 13.981 271.912C15.0283 271.793 15.8676 272.041 16.492 272.594C17.0891 273.181 17.4712 274.074 17.6111 275.306L18.6184 284.177L21.9758 283.796L20.9406 274.678C20.7097 272.645 20.035 271.099 18.913 270.01C17.7909 268.921 16.2732 268.469 14.3019 268.693C12.9158 268.85 11.8076 269.257 11.0081 269.909C10.2086 270.562 9.5806 271.351 9.1549 272.272ZM34.4412 275.173L34.5426 276.066C34.5951 276.528 34.5243 277.004 34.3885 277.457C34.2526 277.909 34.0209 278.341 33.7205 278.718C33.3894 279.099 32.9896 279.425 32.5178 279.666C32.0186 279.941 31.4439 280.1 30.8278 280.17C29.9654 280.268 29.3319 280.184 28.8587 279.863C28.3855 279.542 28.1482 279.101 28.0782 278.485C28.0223 277.992 28.1273 277.544 28.455 277.132C28.7826 276.72 29.3126 276.442 30.0686 276.231L34.4412 275.173ZM24.237 271.309L27.1092 272.699C27.2269 271.812 27.6224 271.174 28.3197 270.72C28.9862 270.27 29.7969 269.991 30.7517 269.883C31.7682 269.767 32.5627 269.895 33.0975 270.209C33.6323 270.523 33.9655 270.984 34.032 271.569L34.0704 271.908C34.1194 272.339 33.8359 272.59 33.2576 272.718L29.0251 273.635C27.6222 273.919 26.4769 274.549 25.6438 275.454C24.8141 276.391 24.478 277.552 24.6389 278.969C24.7193 279.678 24.916 280.311 25.2289 280.868C25.5417 281.425 25.9365 281.879 26.4167 282.262C26.8969 282.644 27.4863 282.889 28.1611 283.062C28.836 283.235 29.5857 283.243 30.3866 283.153C31.557 283.02 32.5182 282.692 33.2666 282.139C34.0185 281.617 34.5989 280.958 35.0078 280.163L35.2491 282.288L38.5757 281.911L37.467 272.146C37.2432 270.175 36.5174 268.729 35.3547 267.831C34.1955 266.964 32.5035 266.626 30.3474 266.871C28.5301 267.077 27.1208 267.581 26.1162 268.35C25.1151 269.15 24.4773 270.127 24.237 271.309ZM43.891 268.172L43.6147 265.739L40.4113 266.103L42.1601 281.504L45.4867 281.126L44.6858 274.072C44.5004 272.44 44.665 271.142 45.2069 270.144C45.7181 269.15 46.7745 268.562 48.3146 268.388C48.6226 268.353 48.9033 268.352 49.184 268.351C49.4682 268.381 49.749 268.381 50.0332 268.411L49.631 264.869C49.1241 264.801 48.5935 264.799 48.1007 264.855C46.9918 264.981 46.1265 265.329 45.4432 265.906C44.7599 266.482 44.2551 267.257 43.891 268.172ZM62.6377 278.898L62.2915 275.848C61.8091 275.997 61.3849 276.107 61.0496 276.176C60.7177 276.277 60.3481 276.319 59.9477 276.364C59.3317 276.434 58.8864 276.36 58.6085 276.11C58.3306 275.861 58.162 275.475 58.099 274.92L57.2072 267.066L61.273 266.604L60.9513 263.77L56.8854 264.232L56.4167 260.105L53.0901 260.482L53.5588 264.61L50.6326 264.942L50.9543 267.776L53.8805 267.444L54.7969 275.514C54.9927 277.239 55.4988 278.398 56.315 278.992C57.1347 279.616 58.282 279.829 59.6989 279.668C60.6846 279.556 61.687 279.318 62.6377 278.898ZM63.1658 271.381C63.3022 272.582 63.6094 273.639 64.091 274.583C64.5725 275.527 65.2214 276.296 65.9795 276.927C66.7375 277.559 67.663 278.015 68.6906 278.273C69.7217 278.561 70.8824 278.617 72.1145 278.477C73.5622 278.312 74.7663 277.926 75.7268 277.318C76.6565 276.713 77.4217 276.033 77.9986 275.344L76.1234 272.843C75.6319 273.46 75.041 274.026 74.3437 274.48C73.6192 274.968 72.7469 275.254 71.7304 275.369C71.176 275.432 70.6146 275.434 70.0699 275.308C69.5288 275.214 69.0388 275.02 68.5726 274.761C68.1064 274.502 67.7186 274.109 67.3854 273.648C67.0522 273.186 66.8045 272.653 66.6659 271.982L66.6624 271.951L78.4904 270.608L78.382 269.653C78.2491 268.483 77.9384 267.395 77.5184 266.444C77.0677 265.497 76.4769 264.691 75.7769 264.021C75.0497 263.386 74.1858 262.923 73.2163 262.627C72.2468 262.332 71.1442 262.239 69.9738 262.371C68.7725 262.508 67.7189 262.846 66.813 263.386C65.9071 263.925 65.1692 264.571 64.5755 265.387C63.9818 266.203 63.5869 267.121 63.3292 268.149C63.0715 269.177 63.0399 270.272 63.1658 271.381ZM74.569 268.495L66.4064 269.422C66.4653 268.292 66.8294 267.377 67.4644 266.65C68.0686 265.926 69.0158 265.475 70.2479 265.335C71.4492 265.199 72.4117 265.433 73.1355 266.037C73.8593 266.641 74.3269 267.462 74.569 268.495ZM83.7172 263.65L83.4409 261.217L80.2374 261.58L81.9862 276.981L85.3128 276.604L84.5119 269.55C84.3265 267.918 84.4911 266.62 85.0331 265.622C85.5442 264.628 86.6006 264.04 88.1407 263.865C88.4487 263.83 88.7294 263.83 89.0101 263.829C89.2944 263.859 89.5751 263.859 89.8593 263.889L89.4571 260.346C88.9503 260.279 88.4196 260.277 87.9268 260.333C86.8179 260.459 85.9526 260.807 85.2693 261.383C84.5861 261.96 84.0813 262.735 83.7172 263.65ZM100.36 263.975C100.535 265.516 100.976 266.932 101.678 268.163C102.383 269.424 103.251 270.48 104.314 271.326C105.381 272.203 106.605 272.813 107.962 273.221C109.318 273.628 110.763 273.714 112.242 273.546C113.042 273.455 113.836 273.303 114.555 273.034C115.276 272.796 116.08 272.455 116.904 272.018L115.831 268.615C115.072 269.075 114.395 269.433 113.732 269.633C113.068 269.833 112.459 269.965 111.843 270.035C110.796 270.154 109.854 270.104 108.95 269.833C108.049 269.592 107.223 269.186 106.502 268.613C105.782 268.04 105.202 267.326 104.731 266.474C104.263 265.654 103.997 264.686 103.871 263.577C103.752 262.529 103.794 261.526 104.063 260.591C104.331 259.656 104.736 258.83 105.31 258.11C105.883 257.389 106.597 256.809 107.418 256.341C108.242 255.905 109.145 255.615 110.192 255.496C111.424 255.356 112.595 255.504 113.698 255.878C114.771 256.255 115.741 256.832 116.633 257.541L117.925 254.088C116.773 253.282 115.488 252.68 114.135 252.303C112.782 251.926 111.364 251.806 109.886 251.974C108.346 252.149 106.96 252.587 105.729 253.288C104.499 253.99 103.443 254.858 102.597 255.922C101.723 257.019 101.113 258.243 100.705 259.6C100.301 260.987 100.185 262.435 100.36 263.975ZM119.639 252.614C119.716 253.291 119.994 253.821 120.505 254.2C120.989 254.613 121.568 254.766 122.245 254.689C122.892 254.616 123.422 254.337 123.832 253.822C124.214 253.342 124.397 252.76 124.321 252.082C124.247 251.435 123.938 250.909 123.454 250.496C122.943 250.117 122.361 249.934 121.714 250.007C121.036 250.084 120.51 250.393 120.127 250.874C119.718 251.388 119.565 251.967 119.639 252.614ZM124.147 256.595L120.82 256.972L122.569 272.373L125.895 271.996L124.147 256.595ZM138.771 270.253L138.424 267.204C137.942 267.352 137.518 267.462 137.182 267.532C136.851 267.632 136.481 267.674 136.081 267.719C135.465 267.789 135.019 267.715 134.741 267.466C134.463 267.216 134.295 266.83 134.232 266.276L133.34 258.421L137.406 257.959L137.084 255.126L133.018 255.587L132.55 251.46L129.223 251.838L129.692 255.965L126.765 256.297L127.087 259.131L130.013 258.799L130.93 266.869C131.126 268.594 131.632 269.753 132.448 270.347C133.267 270.971 134.415 271.184 135.832 271.023C136.817 270.912 137.82 270.673 138.771 270.253ZM139.161 250.397C139.238 251.075 139.516 251.605 140.027 251.984C140.511 252.397 141.09 252.549 141.767 252.472C142.414 252.399 142.944 252.12 143.354 251.606C143.736 251.126 143.919 250.543 143.843 249.866C143.769 249.219 143.46 248.692 142.976 248.279C142.465 247.9 141.883 247.717 141.236 247.79C140.558 247.867 140.032 248.177 139.649 248.657C139.24 249.171 139.087 249.75 139.161 250.397ZM143.669 254.378L140.342 254.756L142.091 270.157L145.417 269.779L143.669 254.378ZM147.631 261.79C147.767 262.992 148.074 264.049 148.556 264.992C149.038 265.936 149.686 266.705 150.445 267.336C151.203 267.968 152.128 268.424 153.156 268.682C154.187 268.97 155.347 269.026 156.58 268.886C158.027 268.722 159.231 268.335 160.192 267.727C161.122 267.122 161.887 266.443 162.464 265.753L160.588 263.252C160.097 263.869 159.506 264.435 158.809 264.889C158.084 265.377 157.212 265.663 156.195 265.778C155.641 265.841 155.08 265.843 154.535 265.717C153.994 265.623 153.504 265.429 153.038 265.17C152.571 264.911 152.184 264.518 151.85 264.057C151.517 263.595 151.27 263.062 151.131 262.391L151.127 262.36L162.955 261.017L162.847 260.062C162.714 258.892 162.403 257.804 161.983 256.853C161.533 255.906 160.942 255.1 160.242 254.43C159.515 253.795 158.651 253.332 157.681 253.036C156.712 252.741 155.609 252.648 154.439 252.781C153.238 252.917 152.184 253.255 151.278 253.795C150.372 254.334 149.634 254.98 149.041 255.796C148.447 256.612 148.052 257.531 147.794 258.558C147.537 259.586 147.505 260.681 147.631 261.79ZM159.034 258.904L150.871 259.831C150.93 258.701 151.294 257.786 151.929 257.059C152.534 256.335 153.481 255.885 154.713 255.745C155.914 255.608 156.877 255.842 157.601 256.446C158.324 257.051 158.792 257.871 159.034 258.904ZM164.674 256.392C164.772 257.254 165.007 257.945 165.408 258.461C165.81 258.977 166.294 259.39 166.887 259.666C167.452 259.976 168.069 260.187 168.737 260.299C169.405 260.41 170.038 260.494 170.668 260.547C171.867 260.661 172.757 260.809 173.34 260.993C173.922 261.176 174.245 261.545 174.311 262.13C174.381 262.746 174.184 263.206 173.719 263.508C173.254 263.81 172.621 264.007 171.851 264.094C170.835 264.21 169.893 264.161 168.989 263.889C168.084 263.617 167.371 263.106 166.818 262.357L164.787 264.803C165.56 265.838 166.571 266.503 167.859 266.856C169.116 267.213 170.5 267.305 171.978 267.137C172.902 267.033 173.723 266.846 174.472 266.573C175.222 266.301 175.833 265.92 176.342 265.456C176.851 264.993 177.223 264.42 177.461 263.769C177.699 263.118 177.773 262.392 177.675 261.53C177.58 260.698 177.349 260.038 176.978 259.519C176.608 258.999 176.189 258.61 175.654 258.296C175.123 258.013 174.506 257.803 173.869 257.688C173.232 257.573 172.564 257.462 171.9 257.381C170.64 257.274 169.719 257.13 169.075 256.953C168.434 256.807 168.111 256.438 168.045 255.853C167.992 255.391 168.166 254.997 168.597 254.667C169.031 254.368 169.629 254.145 170.399 254.057C171.354 253.949 172.207 254.039 172.926 254.332C173.646 254.624 174.249 254.993 174.682 255.505L176.686 253.094C175.941 252.305 175.063 251.718 174.022 251.337C172.98 250.956 171.716 250.819 170.238 250.987C168.297 251.207 166.837 251.81 165.884 252.76C164.904 253.745 164.51 254.944 164.674 256.392ZM187.352 254.098C187.527 255.638 187.968 257.054 188.669 258.285C189.374 259.546 190.243 260.602 191.306 261.448C192.373 262.326 193.597 262.936 194.953 263.343C196.31 263.751 197.755 263.836 199.233 263.668C200.034 263.577 200.828 263.425 201.546 263.156C202.268 262.918 203.072 262.577 203.896 262.141L202.823 258.737C202.064 259.197 201.387 259.555 200.723 259.755C200.06 259.955 199.451 260.087 198.835 260.157C197.787 260.276 196.846 260.227 195.941 259.955C195.04 259.714 194.214 259.309 193.494 258.735C192.774 258.162 192.194 257.448 191.722 256.597C191.255 255.776 190.989 254.808 190.863 253.699C190.744 252.652 190.786 251.649 191.054 250.713C191.323 249.778 191.728 248.952 192.301 248.232C192.875 247.512 193.589 246.931 194.409 246.464C195.233 246.027 196.136 245.737 197.184 245.618C198.416 245.478 199.587 245.626 200.69 246C201.763 246.378 202.733 246.954 203.625 247.664L204.917 244.21C203.765 243.405 202.48 242.802 201.127 242.425C199.774 242.048 198.356 241.928 196.877 242.096C195.337 242.271 193.952 242.709 192.721 243.411C191.49 244.112 190.435 244.981 189.588 246.044C188.715 247.142 188.105 248.365 187.697 249.722C187.293 251.109 187.177 252.558 187.352 254.098ZM209.502 240.663L206.175 241.041L208.624 262.602L211.95 262.224L211.125 254.955C211.037 254.185 211.019 253.47 211.065 252.778C211.115 252.117 211.298 251.535 211.55 251.007C211.806 250.51 212.164 250.095 212.656 249.758C213.121 249.456 213.75 249.228 214.49 249.144C215.506 249.029 216.346 249.277 216.973 249.861C217.605 250.475 217.987 251.368 218.12 252.538L219.127 261.409L222.515 261.025L221.459 251.722C221.347 250.737 221.126 249.888 220.819 249.112C220.482 248.339 220.066 247.7 219.541 247.198C219.016 246.696 218.379 246.3 217.635 246.073C216.892 245.845 216.043 245.786 215.119 245.891C214.01 246.016 213.052 246.375 212.3 246.897C211.517 247.423 210.91 248.116 210.443 248.949L209.502 240.663ZM234.805 252.422L234.906 253.315C234.959 253.777 234.888 254.254 234.752 254.706C234.616 255.158 234.385 255.59 234.084 255.967C233.753 256.348 233.353 256.674 232.882 256.915C232.382 257.19 231.808 257.349 231.192 257.419C230.329 257.517 229.696 257.433 229.222 257.112C228.749 256.791 228.512 256.35 228.442 255.734C228.386 255.241 228.491 254.793 228.819 254.381C229.146 253.969 229.676 253.691 230.432 253.48L234.805 252.422ZM224.601 248.558L227.473 249.948C227.591 249.061 227.986 248.423 228.684 247.969C229.35 247.519 230.161 247.24 231.116 247.132C232.132 247.016 232.927 247.144 233.461 247.458C233.996 247.772 234.329 248.233 234.396 248.818L234.434 249.157C234.483 249.588 234.2 249.839 233.621 249.967L229.389 250.884C227.986 251.169 226.841 251.798 226.008 252.704C225.178 253.64 224.842 254.801 225.003 256.218C225.083 256.927 225.28 257.56 225.593 258.117C225.906 258.674 226.3 259.129 226.781 259.511C227.261 259.893 227.85 260.138 228.525 260.311C229.2 260.484 229.95 260.493 230.75 260.402C231.921 260.269 232.882 259.941 233.63 259.388C234.382 258.866 234.963 258.207 235.372 257.412L235.613 259.537L238.94 259.16L237.831 249.395C237.607 247.424 236.881 245.978 235.719 245.08C234.559 244.214 232.867 243.875 230.711 244.12C228.894 244.326 227.485 244.83 226.48 245.599C225.479 246.399 224.841 247.376 224.601 248.558ZM243.464 236.807L240.076 237.191L242.524 258.753L245.912 258.368L243.464 236.807ZM250.803 235.973L247.415 236.358L249.863 257.919L253.252 257.535L250.803 235.973ZM255.258 249.569C255.394 250.771 255.701 251.828 256.183 252.772C256.664 253.715 257.313 254.484 258.071 255.115C258.829 255.747 259.755 256.203 260.782 256.461C261.814 256.75 262.974 256.805 264.206 256.665C265.654 256.501 266.858 256.114 267.819 255.506C268.748 254.901 269.513 254.222 270.09 253.532L268.215 251.031C267.724 251.648 267.133 252.215 266.436 252.668C265.711 253.156 264.839 253.442 263.822 253.558C263.268 253.621 262.706 253.622 262.162 253.497C261.621 253.402 261.131 253.208 260.664 252.949C260.198 252.69 259.81 252.297 259.477 251.836C259.144 251.375 258.896 250.841 258.758 250.17L258.754 250.14L270.582 248.797L270.474 247.842C270.341 246.671 270.03 245.583 269.61 244.633C269.159 243.685 268.569 242.879 267.869 242.21C267.141 241.575 266.278 241.111 265.308 240.816C264.339 240.52 263.236 240.427 262.066 240.56C260.864 240.696 259.811 241.034 258.905 241.574C257.999 242.114 257.261 242.759 256.667 243.575C256.074 244.391 255.679 245.31 255.421 246.337C255.163 247.365 255.132 248.461 255.258 249.569ZM266.661 246.683L258.498 247.61C258.557 246.48 258.921 245.566 259.556 244.838C260.16 244.114 261.108 243.664 262.34 243.524C263.541 243.387 264.504 243.621 265.227 244.226C265.951 244.83 266.419 245.65 266.661 246.683ZM275.805 241.527L275.563 239.402L272.329 239.769L274.078 255.17L277.405 254.792L276.579 247.523C276.492 246.753 276.473 246.037 276.519 245.346C276.569 244.685 276.752 244.102 277.004 243.575C277.26 243.078 277.618 242.663 278.08 242.329C278.545 242.027 279.174 241.8 279.913 241.716C280.899 241.604 281.704 241.824 282.359 242.374C283.014 242.923 283.431 243.843 283.574 245.106L284.582 253.977L287.97 253.592L286.913 244.29C286.802 243.305 286.58 242.456 286.274 241.68C285.937 240.907 285.521 240.268 284.996 239.766C284.471 239.264 283.833 238.868 283.09 238.641C282.346 238.413 281.497 238.353 280.573 238.458C279.495 238.581 278.565 238.905 277.751 239.434C276.938 239.963 276.268 240.663 275.805 241.527ZM302.868 244.101C303.039 245.61 302.744 246.861 302.041 247.814C301.311 248.802 300.251 249.359 298.896 249.513C298.187 249.593 297.53 249.574 296.948 249.391C296.334 249.211 295.803 248.928 295.354 248.542C294.874 248.16 294.51 247.702 294.224 247.11C293.908 246.522 293.742 245.886 293.658 245.147C293.577 244.438 293.596 243.781 293.773 243.137C293.919 242.496 294.167 241.938 294.549 241.458C294.901 240.981 295.359 240.617 295.916 240.304C296.442 239.995 297.075 239.798 297.784 239.718C299.139 239.564 300.3 239.9 301.23 240.668C302.132 241.47 302.7 242.623 302.868 244.101ZM290.235 245.504C290.379 246.767 290.659 247.858 291.14 248.802C291.622 249.746 292.213 250.552 292.967 251.153C293.691 251.757 294.52 252.193 295.486 252.458C296.422 252.726 297.425 252.768 298.534 252.643C299.704 252.51 300.696 252.179 301.54 251.646C302.385 251.113 303.027 250.448 303.436 249.652L303.565 250.792C303.635 251.408 303.606 251.973 303.545 252.541C303.485 253.11 303.291 253.6 303.001 254.07C302.681 254.543 302.254 254.903 301.696 255.216C301.139 255.529 300.414 255.736 299.49 255.841C298.381 255.967 297.401 255.86 296.552 255.52C295.702 255.179 294.954 254.64 294.305 253.871L292.552 256.566C293.338 257.444 294.319 258.113 295.46 258.545C296.57 258.981 298.019 259.097 299.805 258.894C301.345 258.719 302.618 258.387 303.585 257.841C304.553 257.294 305.291 256.649 305.826 255.87C306.335 255.126 306.644 254.28 306.789 253.359C306.934 252.437 306.952 251.499 306.841 250.514L305.197 236.037L301.839 236.418L302.081 238.543C301.572 237.915 300.828 237.406 299.91 237.011C298.961 236.62 297.885 236.493 296.653 236.632C295.606 236.751 294.672 237.045 293.852 237.512C293 237.983 292.293 238.625 291.693 239.38C291.092 240.134 290.666 241.056 290.409 242.084C290.151 243.111 290.095 244.272 290.235 245.504ZM308.89 243.48C309.027 244.681 309.334 245.738 309.816 246.682C310.297 247.625 310.946 248.394 311.704 249.026C312.462 249.657 313.388 250.114 314.415 250.371C315.446 250.66 316.607 250.715 317.839 250.575C319.287 250.411 320.491 250.025 321.451 249.416C322.381 248.812 323.146 248.132 323.723 247.442L321.848 244.941C321.357 245.558 320.766 246.125 320.068 246.578C319.344 247.066 318.472 247.352 317.455 247.468C316.901 247.531 316.339 247.532 315.795 247.407C315.254 247.312 314.763 247.118 314.297 246.859C313.831 246.6 313.443 246.207 313.11 245.746C312.777 245.285 312.529 244.751 312.391 244.08L312.387 244.05L324.215 242.707L324.107 241.752C323.974 240.581 323.663 239.493 323.243 238.543C322.792 237.596 322.202 236.789 321.502 236.12C320.774 235.485 319.911 235.021 318.941 234.726C317.971 234.43 316.869 234.337 315.698 234.47C314.497 234.606 313.444 234.944 312.538 235.484C311.632 236.024 310.894 236.669 310.3 237.485C309.706 238.301 309.312 239.22 309.054 240.247C308.796 241.275 308.765 242.371 308.89 243.48ZM320.294 240.594L312.131 241.52C312.19 240.391 312.554 239.476 313.189 238.748C313.793 238.025 314.741 237.574 315.973 237.434C317.174 237.298 318.136 237.531 318.86 238.136C319.584 238.74 320.052 239.56 320.294 240.594Z" fill="#637A7F"/>
</g>
<defs>
<clipPath id="clip0">
<rect width="320" height="320" fill="white"/>
</clipPath>
</defs>
</svg>
