<svg width="320" height="320" viewBox="0 0 320 320" fill="none" xmlns="http://www.w3.org/2000/svg">
<g clip-path="url(#clip0)">
<path d="M411.8 221.9C403.1 223.5 392.6 224.8 381.6 225.7C359.5 227.5 336.1 227.9 322.7 226.9C308 225.8 296.5 228.4 285.7 234.6C275.2 240.6 265.7 249.7 254.7 261.2C242.7 273.7 215.5 299.2 186.3 323C171.7 334.9 156.6 346.4 142.7 355.6C128.7 364.9 116.2 371.7 106.7 374.5C69.5998 385.7 49.0998 408.2 36.1998 422.3C36.0998 422.5 35.8998 422.6 35.7998 422.8H51.0998C63.6998 409.6 81.2998 393.9 110 385.2C121.1 381.8 134.7 374.3 148.9 364.9C163.2 355.4 178.6 343.7 193.4 331.6C223 307.5 250.5 281.7 262.8 268.8C273.8 257.3 282.3 249.3 291.3 244.2C299.9 239.3 309.2 237.1 322 238C336.1 239 360.2 238.6 382.6 236.8C391.4 236.1 400 235.1 407.8 233.9L415.1 221.2C414 221.5 412.9 221.7 411.8 221.9Z" fill="#637A7F"/>
<path d="M348.4 266.6C338.1 266.1 327.5 269.6 317.4 274.9C307.2 280.3 296.9 287.8 287.3 295.8C277.7 303.9 268.5 312.6 260.4 320.4C258.5 322.2 256.8 323.9 255 325.6L254.9 325.7C249.1 331.4 244.1 336.3 239.9 339.9C214.7 362.2 167.4 401 132.6 422.8H152.9C186.2 400 225.3 367.7 247.3 348.2C251.7 344.3 257 339.1 262.8 333.4C264.5 331.7 266.3 329.9 268.2 328.2C276.3 320.4 285.2 311.9 294.5 304.1C303.8 296.3 313.4 289.3 322.6 284.5C331.9 279.6 340.5 277.1 347.9 277.5H348.1H348.3H382.4L388.9 266.3H348.4V266.6Z" fill="#637A7F"/>
<path d="M423.8 161.1C420.9 162.8 417 164.6 412.1 166.4C402.1 170 388.6 173.4 372.9 176.3C341.7 182.2 303 186.5 268.5 188.8C259.1 189.4 249.3 193.6 239.8 199.4C230.2 205.2 220.3 213 210.7 221.4C198.2 232.4 185.7 245 174.7 255.9C169.1 261.5 163.9 266.8 159.3 271.2C158.9 271.6 158.4 272.1 158 272.5C147.2 282.9 135.3 294.3 117.1 306C98.2 318.2 72.2 330.8 33.5 342.6C14.4 348.4 0.5 358.6 -9 368.2L-3.2 378.3C5.1 369.3 18.2 359 36.8 353.3C76.3 341.2 103.3 328.2 123.2 315.4C142.3 303.1 154.9 291.1 165.7 280.7L166 280.5L167.2 279.4C172.2 274.6 177.6 269.2 183.3 263.5C194.1 252.7 206 240.7 218.3 229.9C227.6 221.7 236.9 214.4 245.8 209.1C254.7 203.7 262.7 200.6 269.5 200.1C304.2 197.8 343.5 193.5 375.2 187.4C391 184.4 405.2 180.9 416.1 177C421.3 175.1 425.9 173.1 429.6 170.9L423.8 161.1Z" fill="#637A7F"/>
<path d="M28.3 168.9L28.4 168.7L28.5 168.5C57.7 126.2 94.3 90.9 139.2 79.2C152.3 75.8 169.3 73.1999 188.5 70.4999C192 69.9999 195.6 69.4999 199.3 68.9999H199.4C215.4 66.7999 232.4 64.4999 249.1 61.5999C269.7 57.9999 290.1 53.4999 308.1 47.0999C322.9 41.8999 336.3 35.1999 346.8 26.5999L341.2 16.7C331.9 24.7 319.3 31.1999 304.3 36.4999C287.2 42.5999 267.4 46.9999 247.1 50.5999C230.6 53.4999 213.8 55.7999 197.8 57.9999C194.1 58.4999 190.5 58.9999 186.9 59.4999C167.8 62.1999 150.2 64.7999 136.4 68.3999C87.8 80.9999 49.2 118.9 19.5 162C-30.4 223.4 -68.8 232.3 -87.5 231L-81.1 242.3C-56.7 241.2 -18.1 226.1 28.3 168.9Z" fill="#637A7F"/>
<path d="M-4.59996 312.9C0.80004 311.5 6.30004 310.2 11.9 308.7C33.4 302.9 55.7 295.6 74.2 281.7C91.3 268.9 113.1 249.3 135.1 229.6C142.2 223.2 149.4 216.8 156.4 210.5C170.8 197.7 184.7 185.8 196.9 176.4C209.3 166.9 219.3 160.6 226 158.5C235 155.7 247.9 154.2 263.8 152.9C268.4 152.5 273.3 152.2 278.3 151.8C290.3 150.9 303.2 150 316.4 148.6C345.8 145.4 377.4 139.5 403.6 125.6L398 115.9C374 128.6 344.4 134.3 315.2 137.5C302.3 138.9 289.7 139.8 277.8 140.7C272.7 141.1 267.8 141.4 263 141.8C247.3 143.1 233 144.6 222.7 147.9C213.9 150.7 202.5 158.1 190.2 167.6C177.7 177.2 163.5 189.4 149.1 202.2C141.9 208.6 134.6 215.1 127.4 221.6C105.5 241.3 84.2 260.3 67.6 272.8C50.9 285.3 30.5 292.2 9.20004 297.9C4.10004 299.3 -1.19996 300.6 -6.39996 301.9C-18.3 304.9 -30.2 307.9 -41.2 311.6L-35.5 321.5C-26.1 318.3 -15.6 315.6 -4.59996 312.9Z" fill="#637A7F"/>
<path d="M-38.1999 274.5C-22.0999 271.2 -3.39996 264.7 20.6 252L21.0001 251.8L21.3001 251.6C39.4001 238.2 54.9001 223 71.0001 207.1C71.9001 206.2 72.9001 205.2 73.9001 204.3L74.0001 204.2C89.2001 189.1 105.1 173.3 124.5 157.2C145.5 139.8 159.4 128.6 176.9 121.5C194.4 114.4 216.1 111.3 252.9 111.3C302 111.3 349.5 91.5001 375.8 77.3001L370.2 67.6001C345 81.2001 299.5 100.2 252.9 100.2C215.7 100.2 192.3 103.3 172.8 111.2C153.4 119 138.2 131.4 117.4 148.6C97.6001 165 81.3 181.1 66.2 196.2C65.2 197.2 64.2 198.2 63.2 199.2C47.2 215.1 32.3 229.7 15.1 242.4C-7.89996 254.6 -25.4999 260.7 -40.2999 263.7C-49.9999 265.7 -58.7 266.4 -67.2 266.6L-60.8999 277.5C-53.8999 277 -46.3999 276.1 -38.1999 274.5Z" fill="#637A7F"/>
<path d="M-65.6 98.2001L-7.69994 40.3C-5.89994 38.5 -3.89995 36.2001 -1.59995 33.6001C4.30005 27.0001 12.2001 18.1 22.8001 9.80005C37.2001 -1.59995 55.5 -10.8999 77.6 -9.99995C136.4 -7.49995 192.8 -30.0999 235.1 -47.0999C243.8 -50.5999 251.9 -53.7999 259.4 -56.5999L228.9 -56.7C186.7 -39.8 133.7 -18.8 78.1 -21.2C52.4 -22.3 31.5 -11.3 15.9 1.00005C4.50005 10 -4.69994 20.3 -10.6999 27C-12.6999 29.3 -14.4 31.1 -15.6 32.3L-45.9999 62.7001L-66.2 97.6001L-65.6 98.2001Z" fill="#637A7F"/>
<path d="M-103.5 203.3C-95.6 199.2 -85.4 193.4 -75.1 186.8C-61.3 177.9 -46.8 167 -36.9 155.9C-18.4 135 22.6 93.3999 41 74.9999C43.7 72.6999 46.3 70.1999 49 67.7999C56.6 60.7999 64.5 53.3999 75.5 46.9999C90 38.4999 109.8 31.7999 139.9 31.7999C167.3 31.7999 201.8 22.8999 234.9 11.6999C266.1 1.09991 296.5 -11.8001 319.1 -21.8001L313.5 -31.6001C291.2 -21.7001 261.6 -9.30011 231.3 0.999893C198.5 12.0999 165.4 20.4999 139.9 20.4999C108 20.4999 86.2 27.6999 69.8 37.2999C57.7 44.3999 48.5 52.8999 40.7 60.0999C38.2 62.3999 35.8 64.5999 33.5 66.5999L33.3 66.6999L33.2 66.7999C14.9 85.0999 -26.5 127.1 -45.3 148.4C-54.1 158.4 -67.6 168.6 -81.2 177.3C-91.3 184 -101.3 189.6 -109 193.6L-103.5 203.3Z" fill="#637A7F"/>
</g>
<defs>
<clipPath id="clip0">
<rect width="320" height="320" fill="white"/>
</clipPath>
</defs>
</svg>
