<svg width="320" height="320" viewBox="0 0 320 320" fill="none" xmlns="http://www.w3.org/2000/svg">
<g clip-path="url(#clip0)">
<path d="M-4.47592 72.5187L-8.60809 100.477L20.2511 104.742L7.691 189.724L43.6437 195.038L56.2038 110.056L85.0594 114.321L89.1915 86.3626" fill="white"/>
<path d="M238.198 111.26L254.144 150.246L280.384 117.495L320.26 123.388L267.16 179.303L260.465 224.603L226.127 219.528L232.822 174.228L198.487 105.391" fill="white"/>
<path d="M358.679 167.563C349.538 164.506 344.192 162.314 344.96 157.114C345.771 151.631 352.464 151.065 358.318 151.93C363.856 152.749 372.027 154.896 377.903 158.872C382.308 162.018 383.804 164.734 385.176 167.12L395.221 161.033L392.01 182.758C383.65 175.789 371.193 171.652 358.679 167.563ZM404.599 114.87C403.206 114.664 401.934 115.619 401.73 116.994L398.301 140.194C397.328 139.434 396.3 138.662 395.159 137.888C386.881 132.144 375.86 128.021 363.38 126.176C343.831 123.287 324.587 126.83 315.16 141.651C312.532 145.622 310.724 150.356 310.026 155.081C306.666 177.814 325.319 186.808 334.935 190.879C339.252 192.606 358.743 199.064 362.39 201.009C368.097 203.885 367.511 207.853 367.399 208.607C366.248 216.395 352.665 214.688 349.889 214.278C344.656 213.505 339.242 211.772 335.006 209.591C326.066 205.151 324.037 200.796 321.657 195.62L292.848 208.508C296.896 215.186 303.479 225.97 320.011 233.403C328.105 237.087 336.619 239.131 344.778 240.337C350.261 241.147 369.01 243.907 384.246 235.296L380.695 259.319C380.494 260.68 381.435 261.961 382.829 262.167C384.215 262.372 385.495 261.419 385.696 260.058L406.731 117.733C406.935 116.358 405.986 115.075 404.599 114.87Z" fill="white"/>
<path d="M140.013 183.256C134.783 182.483 129.372 180.755 125.126 178.568C116.186 174.128 114.153 169.777 111.785 164.598L101.656 169.113L105.095 145.847C110.696 153.379 119.426 157.465 125.066 159.858C129.369 161.583 148.863 168.042 152.51 169.986C158.225 172.863 157.638 176.835 157.527 177.585C156.376 185.374 142.782 183.665 140.013 183.256ZM148.807 136.541C139.661 133.487 134.316 131.292 135.084 126.092C135.895 120.609 142.591 120.047 148.434 120.911C153.976 121.73 162.162 123.879 168.027 127.849C172.435 130.996 173.924 133.711 175.3 136.098L199.498 121.435C196.229 116.905 192.849 112.039 185.286 106.87C177.008 101.123 165.98 97.0015 153.503 95.1574C137.496 92.7916 121.712 94.7386 111.333 103.636L115.61 74.7031C115.813 73.3278 114.871 72.0463 113.485 71.8414C112.095 71.6359 110.801 72.587 110.597 73.9623L89.5621 216.287C89.361 217.648 90.3247 218.933 91.7147 219.138C93.1011 219.343 94.3731 218.389 94.5742 217.028L97.8211 195.06C101.172 197.66 105.212 200.169 110.128 202.38C118.236 206.066 126.739 208.108 134.895 209.314C140.9 210.201 162.769 213.433 178.522 201.577C184.192 197.278 190.15 190.046 191.818 178.76C195.764 152.06 172.368 144.239 148.807 136.541Z" fill="white"/>
</g>
<defs>
<clipPath id="clip0">
<rect width="320" height="320" fill="white"/>
</clipPath>
</defs>
</svg>
