<svg width="22" height="19" viewBox="0 0 22 19" fill="none" xmlns="http://www.w3.org/2000/svg">
<path d="M19.7227 5.13428C20.582 4.48975 21.3555 3.71631 21.957 2.81396C21.1836 3.15771 20.2812 3.41553 19.3789 3.50146C20.3242 2.94287 21.0117 2.0835 21.3555 1.00928C20.4961 1.5249 19.5078 1.91162 18.5195 2.12646C17.6602 1.22412 16.5 0.708496 15.2109 0.708496C12.7188 0.708496 10.6992 2.72803 10.6992 5.22021C10.6992 5.56396 10.7422 5.90771 10.8281 6.25146C7.08984 6.03662 3.73828 4.23193 1.50391 1.5249C1.11719 2.16943 0.902344 2.94287 0.902344 3.80225C0.902344 5.34912 1.67578 6.72412 2.92188 7.54053C2.19141 7.49756 1.46094 7.32568 0.859375 6.98193V7.0249C0.859375 9.21631 2.40625 11.021 4.46875 11.4507C4.125 11.5366 3.69531 11.6226 3.30859 11.6226C3.00781 11.6226 2.75 11.5796 2.44922 11.5366C3.00781 13.3413 4.68359 14.6304 6.66016 14.6733C5.11328 15.8765 3.17969 16.6069 1.07422 16.6069C0.6875 16.6069 0.34375 16.564 0 16.521C1.97656 17.8101 4.33984 18.5405 6.91797 18.5405C15.2109 18.5405 19.7227 11.7085 19.7227 5.73584C19.7227 5.521 19.7227 5.34912 19.7227 5.13428Z" fill="#04E3BB"/>
</svg>
